<svg width="300%" height="300%" viewBox="0 0 850 330" fill="none" xmlns="http://www.w3.org/2000/svg">
<path d="M134.256 5.13559L0 287.593L0 342.943H174.078V398.864L253.722 398.864V342.943H289.562V275.04H253.722L253.722 174.61H174.078L174.078 275.04H98.9857L221.296 5.13559L134.256 5.13559Z" fill="black"/>
<path d="M587.679 124.966C587.679 33.0961 526.239 0 455.698 0C385.156 0 323.717 33.0961 323.717 125.537L323.717 278.463C323.717 366.91 385.156 404 455.698 404C526.239 404 587.679 366.91 587.679 278.463V124.966ZM508.035 132.384L508.035 271.616C508.035 313.842 490.969 336.667 455.698 336.667C419.858 336.667 402.792 313.842 402.792 271.616L402.792 132.384C402.792 90.1582 419.858 67.3333 455.698 67.3333C490.969 67.3333 508.035 90.1582 508.035 132.384Z" fill="black"/>
<path d="M748.695 5.13559L614.438 287.593V342.943H788.517L788.517 398.864H868.16L868.16 342.943L904 342.943V275.04L868.16 275.04V174.61L788.517 174.61V275.04H713.424L835.734 5.13559L748.695 5.13559Z" fill="black"/>
</svg>
