<?xml version="1.0" standalone="no"?>
<!DOCTYPE svg PUBLIC "-//W3C//DTD SVG 20010904//EN"
 "http://www.w3.org/TR/2001/REC-SVG-20010904/DTD/svg10.dtd">
<svg version="1.0" xmlns="http://www.w3.org/2000/svg"
 width="1000.000000pt" height="1000.000000pt" viewBox="0 0 1000.000000 1000.000000"
 preserveAspectRatio="xMidYMid meet">
<metadata>
Created by potrace 1.11, written by Peter Selinger 2001-2013
</metadata>
<g transform="translate(0.000000,1000.000000) scale(0.100000,-0.100000)"
fill="#0281f9" stroke="none">
<path d="M1120 9625 c0 -12 -16 -15 -85 -15 -50 0 -85 -4 -85 -10 0 -5 -16
-10 -35 -10 -24 0 -35 -5 -35 -15 0 -9 -9 -15 -25 -15 -14 0 -25 -4 -25 -10 0
-5 -11 -10 -25 -10 -16 0 -25 -6 -25 -15 0 -9 -9 -15 -21 -15 -22 0 -49 -22
-49 -39 0 -6 -7 -11 -15 -11 -8 0 -15 -4 -15 -10 0 -5 -11 -10 -25 -10 -14 0
-25 -5 -25 -10 0 -14 -46 -60 -60 -60 -5 0 -10 -11 -10 -25 0 -14 -4 -25 -10
-25 -5 0 -10 -7 -10 -15 0 -8 -5 -15 -11 -15 -17 0 -39 -27 -39 -49 0 -12 -6
-21 -15 -21 -9 0 -15 -9 -15 -25 0 -14 -4 -25 -10 -25 -5 0 -10 -11 -10 -25 0
-16 -6 -25 -15 -25 -11 0 -15 -12 -15 -50 0 -27 -4 -50 -10 -50 -6 0 -10 -30
-10 -70 0 -56 -3 -70 -15 -70 -13 0 -15 -81 -15 -665 0 -584 2 -665 15 -665 8
0 15 -4 15 -10 0 -6 47 -10 120 -10 l120 0 0 720 c0 633 2 720 15 720 11 0 15
11 15 40 0 22 5 40 10 40 6 0 10 11 10 25 0 16 6 25 15 25 9 0 15 9 15 21 0
19 21 49 35 49 10 0 35 28 35 39 0 6 5 11 11 11 11 0 39 25 39 35 0 14 30 35
49 35 12 0 21 6 21 15 0 9 9 15 25 15 14 0 25 5 25 10 0 6 18 10 40 10 29 0
40 4 40 15 0 13 88 15 735 15 l735 0 0 120 c0 100 -2 120 -15 120 -8 0 -15 7
-15 15 0 13 -82 15 -675 15 -593 0 -675 -2 -675 -15z"/>
<path d="M7570 9625 c0 -8 -7 -15 -15 -15 -12 0 -15 -20 -15 -120 l0 -120 710
0 c624 0 710 -2 710 -15 0 -11 11 -15 40 -15 22 0 40 -4 40 -10 0 -5 11 -10
25 -10 16 0 25 -6 25 -15 0 -9 9 -15 21 -15 19 0 49 -21 49 -35 0 -10 28 -35
39 -35 6 0 11 -5 11 -11 0 -11 25 -39 35 -39 14 0 35 -30 35 -49 0 -12 6 -21
15 -21 9 0 15 -9 15 -25 0 -14 5 -25 10 -25 6 0 10 -18 10 -40 0 -29 4 -40 15
-40 13 0 15 -87 15 -720 l0 -720 120 0 c73 0 120 4 120 10 0 6 7 10 15 10 13
0 15 81 15 665 0 584 -2 665 -15 665 -12 0 -15 14 -15 70 0 40 -4 70 -10 70
-5 0 -10 23 -10 50 0 38 -4 50 -15 50 -9 0 -15 9 -15 25 0 14 -4 25 -10 25 -5
0 -10 11 -10 25 0 16 -6 25 -15 25 -9 0 -15 9 -15 21 0 22 -22 49 -39 49 -6 0
-11 7 -11 15 0 8 -4 15 -10 15 -5 0 -10 9 -10 21 0 19 -21 49 -35 49 -10 0
-35 28 -35 39 0 6 -11 11 -25 11 -14 0 -25 5 -25 10 0 6 -7 10 -15 10 -8 0
-15 5 -15 11 0 17 -27 39 -49 39 -12 0 -21 6 -21 15 0 9 -9 15 -25 15 -14 0
-25 5 -25 10 0 6 -11 10 -25 10 -16 0 -25 6 -25 15 0 10 -11 15 -35 15 -19 0
-35 5 -35 10 0 6 -35 10 -85 10 -69 0 -85 3 -85 15 0 13 -79 15 -650 15 -571
0 -650 -2 -650 -15z"/>
<path d="M1250 7955 l0 -795 795 0 795 0 0 795 0 795 -795 0 -795 0 0 -795z
m1360 0 l0 -565 -565 0 -565 0 0 565 0 565 565 0 565 0 0 -565z"/>
<path d="M1700 7960 l0 -340 340 0 340 0 0 340 0 340 -340 0 -340 0 0 -340z"/>
<path d="M3060 8410 l0 -340 340 0 340 0 0 -115 0 -115 230 0 230 0 0 -110 0
-110 -115 0 -115 0 0 -230 0 -230 -115 0 -115 0 0 115 0 115 -110 0 -110 0 0
115 0 115 -230 0 -230 0 0 -455 0 -455 -110 0 -110 0 0 115 0 115 -115 0 -115
0 0 -115 0 -115 115 0 115 0 0 -115 0 -115 -115 0 -115 0 0 -110 0 -110 115 0
115 0 0 -115 0 -115 -115 0 -115 0 0 -115 0 -115 455 0 455 0 0 -110 0 -110
110 0 110 0 0 -115 0 -115 50 0 50 0 25 54 c14 30 25 59 25 64 0 5 18 43 40
85 38 71 40 81 40 161 l0 86 64 0 c63 0 63 0 115 51 l51 52 0 288 0 289 -115
0 -115 0 0 115 0 115 -225 0 -225 0 0 115 0 115 225 0 225 0 0 110 0 110 115
0 115 0 0 230 0 230 110 0 110 0 0 -230 0 -230 115 0 115 0 0 -110 0 -110 115
0 115 0 0 -115 0 -115 110 0 110 0 0 -115 0 -115 115 0 115 0 0 230 0 230 115
0 115 0 0 -340 0 -340 -115 0 -115 0 0 -50 c0 -27 4 -50 10 -50 5 0 33 -11 62
-24 29 -13 64 -27 78 -31 14 -4 34 -14 45 -21 11 -8 23 -14 27 -14 5 0 8 43 8
95 l0 95 110 0 110 0 0 110 0 110 115 0 115 0 0 -225 0 -225 -115 0 -115 0 0
-65 c0 -45 4 -65 13 -65 14 0 97 -84 97 -98 0 -5 6 -12 14 -15 8 -3 34 -33 58
-67 l43 -62 3 71 3 71 114 0 115 0 0 -110 0 -110 -90 0 c-49 0 -90 -3 -90 -7
0 -5 9 -21 20 -38 11 -16 20 -35 20 -42 0 -7 11 -37 25 -67 14 -30 25 -60 25
-65 0 -6 20 -11 45 -11 l45 0 0 -225 c0 -218 -1 -225 -20 -225 -15 0 -20 -7
-20 -27 0 -16 -9 -64 -21 -108 -11 -44 -24 -98 -29 -120 -5 -22 -18 -59 -29
-82 -12 -23 -21 -48 -21 -55 0 -7 -7 -22 -15 -32 -8 -11 -15 -23 -15 -28 0 -4
38 -8 85 -8 l85 0 0 -110 0 -110 115 0 115 0 0 -115 0 -115 -115 0 -115 0 0
-115 0 -115 -230 0 -230 0 0 115 0 115 115 0 115 0 -1 178 c0 170 -1 176 -17
152 -9 -13 -25 -33 -34 -42 -10 -10 -18 -22 -18 -28 0 -5 -11 -17 -25 -26 -14
-9 -25 -21 -25 -26 0 -6 -17 -28 -39 -49 -21 -22 -43 -39 -49 -39 -5 0 -17
-11 -26 -25 -9 -14 -23 -25 -31 -25 -8 0 -15 -4 -15 -8 0 -9 -132 -102 -144
-102 -3 0 -24 -11 -46 -25 -22 -14 -44 -25 -50 -25 -5 0 -34 -11 -64 -25 -30
-14 -64 -25 -75 -25 -18 0 -21 -6 -21 -45 l0 -45 -115 0 -115 0 0 -115 0 -115
-110 0 -110 0 0 115 0 115 -115 0 -115 0 0 45 c0 25 -5 45 -11 45 -5 0 -35 11
-65 25 -30 14 -59 25 -64 25 -31 0 -286 169 -297 196 -3 8 -10 14 -15 14 -13
0 -98 82 -98 95 0 6 -8 15 -18 22 -10 6 -38 41 -63 78 l-44 67 -3 -76 -3 -76
-114 0 -115 0 0 340 0 340 25 0 c25 0 25 0 25 94 0 52 3 101 6 110 5 14 -10
16 -135 16 l-141 0 0 115 0 115 -115 0 -115 0 0 115 0 115 -455 0 -455 0 0
-230 0 -230 -110 0 -110 0 0 115 0 115 -340 0 -340 0 0 -225 0 -225 110 0 110
0 0 -115 0 -115 -110 0 -110 0 0 -115 0 -115 -115 0 -115 0 0 -680 0 -680 115
0 115 0 0 340 0 340 110 0 110 0 0 115 0 115 115 0 115 0 0 115 0 115 115 0
115 0 0 -345 0 -345 -230 0 -230 0 0 -110 0 -110 230 0 230 0 0 -115 0 -115
110 0 110 0 0 115 0 115 115 0 115 0 0 -115 0 -115 225 0 225 0 0 -115 0 -115
340 0 340 0 0 -340 0 -340 115 0 115 0 0 -110 0 -110 -225 0 -225 0 0 -115 0
-115 110 0 110 0 0 -225 0 -225 115 0 115 0 0 110 0 110 340 0 340 0 0 115 0
115 115 0 115 0 0 -115 0 -115 110 0 110 0 0 115 0 115 115 0 115 0 0 225 0
225 115 0 115 0 0 115 0 115 225 0 225 0 0 -225 0 -225 -115 0 -115 0 0 -115
0 -115 -110 0 -110 0 0 -225 0 -225 110 0 110 0 0 110 0 110 115 0 115 0 0
-110 0 -110 455 0 455 0 0 110 0 110 115 0 115 0 0 115 0 115 110 0 110 0 0
-225 0 -225 230 0 230 0 0 110 0 110 110 0 110 0 0 115 0 115 115 0 115 0 0
115 0 115 115 0 115 0 0 110 0 110 110 0 110 0 0 115 0 115 -110 0 -110 0 0
115 0 115 110 0 110 0 0 110 0 110 -110 0 -110 0 0 -110 0 -110 -115 0 -115 0
0 110 0 110 -115 0 -115 0 0 230 0 230 115 0 115 0 0 -115 0 -115 225 0 225 0
0 115 0 115 -110 0 -110 0 0 110 0 110 110 0 110 0 0 115 0 115 -225 0 -225 0
0 -115 0 -115 -115 0 -115 0 0 -110 0 -110 -340 0 -340 0 0 110 0 110 -110 0
-110 0 0 115 0 115 110 0 110 0 0 115 0 115 115 0 115 0 0 -230 0 -230 115 0
115 0 0 115 0 115 110 0 110 0 0 115 0 115 -110 0 -110 0 0 115 0 115 -115 0
-115 0 0 110 0 110 340 0 340 0 0 230 0 230 115 0 115 0 0 -115 0 -115 110 0
110 0 0 115 0 115 -110 0 -110 0 0 110 0 110 110 0 110 0 0 115 0 115 -110 0
-110 0 0 -115 0 -115 -115 0 -115 0 0 230 0 230 225 0 225 0 0 340 0 340 -225
0 -225 0 0 110 0 110 -115 0 -115 0 0 115 0 115 340 0 340 0 0 115 0 115 -340
0 -340 0 0 -115 0 -115 -110 0 -110 0 0 -225 0 -225 110 0 110 0 0 -115 0
-115 -340 0 -340 0 0 115 0 115 -110 0 -110 0 0 -115 0 -115 -115 0 -115 0 0
225 0 225 -115 0 -115 0 0 115 0 115 455 0 455 0 0 115 0 115 -455 0 -455 0 0
110 0 110 115 0 115 0 0 230 0 230 -225 0 -225 0 0 225 0 225 -115 0 -115 0 0
115 0 115 -115 0 -115 0 0 110 0 110 115 0 115 0 0 115 0 115 -230 0 -230 0 0
-225 0 -225 -110 0 -110 0 0 110 0 110 -115 0 -115 0 0 -110 0 -110 -115 0
-115 0 0 110 0 110 -110 0 -110 0 0 115 0 115 -230 0 -230 0 0 -115 0 -115
-110 0 -110 0 0 115 0 115 -230 0 -230 0 0 -115 0 -115 230 0 230 0 0 -110 0
-110 110 0 110 0 0 -115 0 -115 115 0 115 0 0 -115 0 -115 -225 0 -225 0 0
115 0 115 -115 0 -115 0 0 115 0 115 -340 0 -340 0 0 225 0 225 -115 0 -115 0
0 -340z m1820 -225 l0 -115 -115 0 -115 0 0 115 0 115 115 0 115 0 0 -115z
m680 -230 l0 -115 340 0 340 0 0 -110 0 -110 -115 0 -115 0 0 -115 0 -115 115
0 115 0 0 -115 0 -115 115 0 115 0 0 115 0 115 110 0 110 0 0 -115 0 -115
-110 0 -110 0 0 -340 0 -340 110 0 110 0 0 -110 0 -110 -225 0 -225 0 0 450 0
450 -115 0 -115 0 0 -110 0 -110 -115 0 -115 0 0 110 0 110 -110 0 -110 0 0
115 0 115 -115 0 -115 0 0 -115 0 -115 -115 0 -115 0 0 230 0 230 230 0 230 0
0 110 0 110 -230 0 -230 0 0 115 0 115 230 0 230 0 0 -115z m-680 -225 l0
-110 -115 0 -115 0 0 110 0 110 115 0 115 0 0 -110z m-1360 -565 l0 -225 -115
0 -115 0 0 225 0 225 115 0 115 0 0 -225z m1360 110 l0 -115 -115 0 -115 0 0
115 0 115 115 0 115 0 0 -115z m-1590 -680 l0 -115 225 0 225 0 0 -110 0 -110
-225 0 -225 0 0 -115 0 -115 -115 0 -115 0 0 115 0 115 115 0 115 0 0 110 0
110 -115 0 -115 0 0 115 0 115 115 0 115 0 0 -115z m450 -680 l0 -115 -110 0
-110 0 0 115 0 115 110 0 110 0 0 -115z m2730 0 l0 -115 110 0 110 0 0 -110 0
-110 115 0 115 0 0 110 0 110 115 0 115 0 0 115 0 115 110 0 110 0 0 -225 0
-225 115 0 115 0 0 110 0 110 115 0 115 0 0 -110 0 -110 110 0 110 0 0 -230 0
-230 115 0 115 0 0 -110 0 -110 -115 0 -115 0 0 -115 0 -115 -110 0 -110 0 0
455 0 455 -115 0 -115 0 0 -115 0 -115 -115 0 -115 0 0 -115 0 -115 -225 0
-225 0 0 -110 0 -110 115 0 115 0 0 -230 0 -230 110 0 110 0 0 -225 0 -225
-110 0 -110 0 0 -115 0 -115 -115 0 -115 0 0 230 0 230 -225 0 -225 0 0 110 0
110 110 0 110 0 0 115 0 115 -225 0 -225 0 0 115 0 115 225 0 225 0 0 110 0
110 -110 0 -110 0 0 340 0 340 -115 0 -115 0 0 115 0 115 115 0 115 0 0 -115z
m-3410 -680 l0 -115 230 0 230 0 0 -340 0 -340 -115 0 -115 0 0 -225 0 -225
115 0 115 0 0 -115 0 -115 110 0 110 0 0 115 0 115 115 0 115 0 0 -230 0 -230
225 0 225 0 0 -110 0 -110 -225 0 -225 0 0 -115 0 -115 225 0 225 0 0 -115 0
-115 115 0 115 0 0 340 0 340 115 0 115 0 0 -110 0 -110 110 0 110 0 0 -115 0
-115 230 0 230 0 0 -115 0 -115 -230 0 -230 0 0 -225 0 -225 115 0 115 0 0
115 0 115 115 0 115 0 0 -115 0 -115 -115 0 -115 0 0 -115 0 -115 -225 0 -225
0 0 115 0 115 -340 0 -340 0 0 -115 0 -115 -115 0 -115 0 0 115 0 115 115 0
115 0 0 115 0 115 -115 0 -115 0 0 225 0 225 -115 0 -115 0 0 115 0 115 115 0
115 0 0 110 0 110 -225 0 -225 0 0 -110 0 -110 -115 0 -115 0 0 -115 0 -115
-115 0 -115 0 0 115 0 115 -225 0 -225 0 0 110 0 110 -115 0 -115 0 0 -110 0
-110 -110 0 -110 0 0 110 0 110 110 0 110 0 0 115 0 115 115 0 115 0 0 115 0
115 115 0 115 0 0 115 0 115 -115 0 -115 0 0 110 0 110 115 0 115 0 0 115 0
115 -230 0 -230 0 0 -225 0 -225 -110 0 -110 0 0 340 0 340 340 0 340 0 0 110
0 110 -115 0 -115 0 0 115 0 115 225 0 225 0 0 -115z m4540 -450 l0 -115 -115
0 -115 0 0 115 0 115 115 0 115 0 0 -115z m-5900 -680 l0 -115 -110 0 -110 0
0 115 0 115 110 0 110 0 0 -115z m4990 -570 l0 -455 -110 0 -110 0 0 115 0
115 -230 0 -230 0 0 -115 0 -115 115 0 115 0 0 -225 0 -225 225 0 225 0 0
-115 0 -115 -340 0 -340 0 0 115 0 115 -115 0 -115 0 0 110 0 110 115 0 115 0
0 115 0 115 -115 0 -115 0 0 115 0 115 -110 0 -110 0 0 110 0 110 -115 0 -115
0 0 115 0 115 225 0 225 0 0 -225 0 -225 115 0 115 0 0 110 0 110 230 0 230 0
0 230 0 230 110 0 110 0 0 -455z m460 -115 l0 -110 -115 0 -115 0 0 110 0 110
115 0 115 0 0 -110z m450 -680 l0 -340 -340 0 -340 0 0 340 0 340 340 0 340 0
0 -340z m450 -455 l0 -115 -110 0 -110 0 0 115 0 115 110 0 110 0 0 -115z
m-3400 -225 l0 -110 -115 0 -115 0 0 -115 0 -115 -110 0 -110 0 0 115 0 115
110 0 110 0 0 110 0 110 115 0 115 0 0 -110z m2720 0 l0 -110 230 0 230 0 0
-115 0 -115 -230 0 -230 0 0 115 0 115 -225 0 -225 0 0 -230 0 -230 -225 0
-225 0 0 230 0 230 -115 0 -115 0 0 -115 0 -115 -115 0 -115 0 0 115 0 115
115 0 115 0 0 110 0 110 565 0 565 0 0 -110z m-2270 -225 l0 -115 -110 0 -110
0 0 115 0 115 110 0 110 0 0 -115z"/>
<path d="M5560 7505 l0 -115 110 0 110 0 0 -115 0 -115 115 0 115 0 0 115 0
115 -115 0 -115 0 0 115 0 115 -110 0 -110 0 0 -115z"/>
<path d="M6920 5465 l0 -115 -115 0 -115 0 0 -115 0 -115 115 0 115 0 0 115 0
115 225 0 225 0 0 115 0 115 -225 0 -225 0 0 -115z"/>
<path d="M2840 4785 l0 -115 110 0 110 0 0 -115 0 -115 115 0 115 0 0 115 0
115 -115 0 -115 0 0 115 0 115 -110 0 -110 0 0 -115z"/>
<path d="M3060 3875 l0 -115 115 0 115 0 0 115 0 115 -115 0 -115 0 0 -115z"/>
<path d="M2610 3645 l0 -115 115 0 115 0 0 115 0 115 -115 0 -115 0 0 -115z"/>
<path d="M4880 2965 l0 -115 -115 0 -115 0 0 -110 0 -110 115 0 115 0 0 110 0
110 110 0 110 0 0 115 0 115 -110 0 -110 0 0 -115z"/>
<path d="M4200 2740 l0 -110 110 0 110 0 0 110 0 110 -110 0 -110 0 0 -110z"/>
<path d="M7150 2740 l0 -110 110 0 110 0 0 110 0 110 -110 0 -110 0 0 -110z"/>
<path d="M6470 8525 l0 -225 225 0 225 0 0 225 0 225 -225 0 -225 0 0 -225z"/>
<path d="M7150 7955 l0 -795 790 0 790 0 0 795 0 795 -790 0 -790 0 0 -795z
m1360 0 l0 -565 -570 0 -570 0 0 565 0 565 570 0 570 0 0 -565z"/>
<path d="M7600 7960 l0 -340 340 0 340 0 0 340 0 340 -340 0 -340 0 0 -340z"/>
<path d="M6690 7955 l0 -115 115 0 115 0 0 115 0 115 -115 0 -115 0 0 -115z"/>
<path d="M1700 6825 l0 -115 -110 0 -110 0 0 -225 0 -225 -115 0 -115 0 0
-115 0 -115 115 0 115 0 0 -115 0 -115 110 0 110 0 0 -110 0 -110 115 0 115 0
0 110 0 110 225 0 225 0 0 115 0 115 -225 0 -225 0 0 -115 0 -115 -115 0 -115
0 0 230 0 230 340 0 340 0 0 340 0 340 -340 0 -340 0 0 -115z m230 -230 l0
-115 -115 0 -115 0 0 115 0 115 115 0 115 0 0 -115z"/>
<path d="M4200 6825 l0 -115 110 0 110 0 0 -325 c0 -179 3 -325 6 -325 4 0 21
8 38 19 17 10 42 22 56 26 14 4 45 16 70 28 43 19 100 33 233 59 53 11 57 13
57 40 l0 28 -115 0 -115 0 0 225 0 225 -115 0 -115 0 0 115 0 115 -110 0 -110
0 0 -115z"/>
<path d="M4810 6120 c-14 -4 -40 -8 -58 -9 -77 -2 -424 -162 -440 -203 -2 -4
-9 -8 -16 -8 -7 0 -22 -10 -33 -22 -11 -13 -38 -39 -59 -58 -71 -65 -204 -234
-204 -260 0 -5 -11 -26 -25 -46 -14 -20 -25 -42 -25 -49 0 -7 -11 -38 -25 -69
-13 -30 -36 -106 -51 -168 -23 -102 -25 -128 -22 -263 5 -162 19 -237 70 -365
39 -97 99 -218 115 -232 7 -6 13 -14 13 -19 0 -33 246 -289 278 -289 4 0 20
-11 36 -25 16 -14 33 -25 38 -25 5 0 26 -11 47 -24 40 -25 144 -67 266 -107
95 -31 384 -40 485 -15 112 28 168 44 207 61 92 41 223 109 223 116 0 4 9 10
20 14 54 17 290 255 290 293 0 5 6 15 14 21 22 18 112 206 134 281 37 123 44
166 49 302 5 127 2 161 -17 250 -23 110 -52 193 -103 298 -41 84 -107 190
-118 190 -5 0 -9 6 -9 13 0 16 -178 197 -194 197 -4 0 -19 11 -34 25 -15 14
-31 25 -36 25 -5 0 -24 11 -42 25 -18 14 -36 25 -41 25 -4 0 -30 11 -58 24
-87 43 -207 83 -283 95 -81 12 -354 13 -392 1z m440 -156 c109 -28 170 -58
170 -84 0 -8 11 -37 24 -65 22 -47 40 -89 102 -237 15 -35 39 -90 55 -123 16
-33 29 -64 29 -68 0 -5 11 -32 24 -60 13 -29 36 -81 51 -117 15 -36 38 -88 51
-115 13 -28 24 -56 24 -62 0 -7 11 -32 24 -58 14 -25 29 -60 36 -79 19 -59 65
-141 80 -144 18 -3 38 38 46 99 10 71 -15 155 -101 344 -13 28 -26 61 -30 75
-4 14 -18 44 -31 68 -13 23 -24 48 -24 55 0 6 -11 34 -24 62 -13 27 -36 79
-51 115 -15 36 -38 89 -51 118 -13 29 -24 57 -24 63 0 26 89 -53 148 -131 15
-19 30 -37 33 -40 12 -9 79 -112 79 -121 0 -5 11 -30 24 -56 88 -169 109 -494
46 -698 -24 -79 -90 -225 -101 -225 -4 0 -11 -10 -14 -21 -18 -56 -194 -243
-279 -297 -22 -14 -47 -31 -54 -39 -7 -7 -18 -13 -23 -13 -5 0 -27 -11 -49
-25 -22 -14 -46 -25 -54 -25 -8 0 -36 -9 -63 -21 -106 -45 -330 -61 -504 -35
-107 16 -239 61 -239 82 0 7 -11 33 -24 56 -13 24 -27 54 -31 68 -4 14 -17 48
-30 75 -12 28 -35 79 -50 115 -15 36 -38 88 -50 115 -13 28 -26 61 -30 75 -4
14 -18 44 -31 68 -13 23 -24 48 -24 55 0 6 -11 34 -24 62 -13 27 -36 79 -51
115 -15 36 -38 88 -51 117 -13 28 -24 57 -24 63 0 6 -13 35 -30 65 -16 30 -30
59 -30 64 0 6 -11 35 -25 65 -31 68 -31 87 0 136 14 22 25 45 25 51 0 6 14 31
30 56 17 24 30 48 30 53 0 5 6 13 13 17 6 4 24 24 38 43 39 51 150 159 182
176 15 8 27 19 27 24 0 5 10 12 23 16 12 4 24 9 27 13 10 12 69 51 78 51 4 0
28 10 53 22 24 12 60 25 79 29 19 5 73 17 120 28 123 30 305 24 450 -15z
m-1175 -1064 c15 -36 40 -92 56 -125 16 -33 29 -64 29 -68 0 -5 11 -32 24 -60
13 -29 35 -80 50 -114 14 -35 38 -91 52 -125 15 -35 37 -86 50 -113 13 -28 24
-56 24 -63 0 -20 -17 -14 -38 13 -11 14 -25 25 -31 25 -5 0 -16 10 -22 23 -7
12 -18 26 -25 30 -23 13 -128 169 -160 237 -58 122 -75 188 -86 331 -6 75 -8
144 -4 155 9 20 20 0 81 -146z"/>
<path d="M5258 5917 c-57 -26 -61 -48 -24 -129 13 -29 36 -79 50 -110 14 -31
26 -60 26 -65 0 -4 11 -30 24 -58 13 -27 38 -84 56 -125 17 -41 43 -98 56
-125 13 -28 24 -56 24 -62 0 -7 11 -33 25 -59 14 -26 25 -51 25 -56 0 -5 11
-33 24 -61 28 -63 73 -166 116 -267 17 -41 39 -93 49 -115 10 -22 24 -55 31
-72 18 -47 71 -49 107 -5 26 31 29 69 8 96 -8 11 -15 26 -15 34 0 13 -16 50
-86 198 -13 28 -24 56 -24 62 0 11 -26 72 -76 177 -14 28 -24 55 -24 60 0 6
-13 37 -29 70 -16 33 -41 89 -56 125 -15 36 -38 88 -51 115 -13 28 -24 56 -24
62 0 7 -11 33 -25 59 -14 26 -25 51 -25 56 0 10 -46 111 -80 178 -9 19 -21 35
-26 37 -5 1 -30 -8 -56 -20z"/>
<path d="M5077 5843 c-15 -2 -35 -15 -44 -29 -15 -23 -14 -28 2 -67 44 -107
78 -185 96 -223 10 -23 19 -45 19 -49 0 -4 13 -35 29 -69 26 -57 42 -93 107
-248 15 -35 37 -86 50 -115 13 -28 24 -56 24 -61 0 -5 14 -34 30 -65 17 -31
30 -62 30 -68 0 -11 18 -54 76 -174 13 -28 24 -55 24 -61 0 -15 31 -76 46 -91
15 -16 78 -17 106 -2 17 9 19 17 14 50 -6 37 -18 66 -87 216 -16 34 -29 66
-29 73 0 6 -11 31 -25 56 -14 25 -25 50 -25 57 0 6 -11 34 -24 62 -13 27 -36
79 -51 115 -15 36 -40 92 -56 125 -16 34 -29 66 -29 73 0 6 -11 31 -25 56 -14
25 -25 50 -25 56 0 6 -11 35 -24 63 -13 29 -36 81 -51 117 -15 36 -43 98 -62
138 -35 74 -35 74 -96 65z"/>
<path d="M4883 5757 c-36 -17 -43 -26 -43 -50 0 -17 9 -48 19 -71 11 -23 34
-75 51 -116 43 -101 88 -204 116 -267 13 -28 24 -55 24 -60 0 -4 11 -30 24
-58 13 -27 36 -79 51 -115 15 -36 40 -92 56 -125 16 -34 29 -66 29 -72 0 -7
11 -33 25 -59 14 -26 25 -52 25 -58 0 -21 92 -117 131 -136 76 -39 94 -19 55
64 -14 30 -26 60 -26 66 0 6 -13 35 -30 65 -16 30 -30 59 -30 65 0 6 -11 35
-24 63 -13 29 -36 81 -51 117 -15 36 -38 88 -51 115 -13 28 -24 56 -24 62 0 7
-13 38 -30 68 -16 30 -30 61 -30 67 0 10 -19 53 -76 173 -13 28 -24 57 -24 65
0 8 -8 29 -18 45 -10 17 -26 52 -35 79 -15 45 -52 97 -66 95 -3 0 -25 -10 -48
-22z"/>
<path d="M4677 5670 c-30 -24 -35 -56 -12 -86 8 -10 15 -25 15 -33 0 -7 11
-35 25 -63 14 -27 25 -54 25 -60 0 -6 13 -38 29 -72 16 -34 44 -95 61 -136 17
-41 40 -93 51 -116 10 -23 19 -47 19 -53 0 -7 9 -29 19 -49 19 -34 58 -123
118 -267 14 -33 36 -83 49 -112 13 -28 24 -56 24 -61 0 -5 10 -29 23 -53 12
-24 29 -62 36 -84 18 -52 53 -105 69 -105 17 0 75 30 85 44 13 18 -2 85 -28
132 -14 25 -25 50 -25 57 0 6 -11 34 -24 62 -13 27 -38 84 -56 125 -17 41 -43
98 -56 125 -13 28 -24 56 -24 62 0 7 -11 32 -25 57 -14 25 -25 50 -25 56 0 6
-11 35 -24 63 -13 29 -38 86 -56 127 -18 41 -43 98 -55 125 -13 28 -26 61 -30
75 -4 14 -16 41 -26 60 -11 19 -19 39 -19 44 0 8 -17 46 -60 136 -11 24 -72
24 -103 0z"/>
<path d="M4513 5598 c-37 -19 -43 -26 -43 -55 0 -18 12 -59 27 -90 14 -32 39
-86 55 -119 15 -34 28 -65 28 -69 0 -4 9 -26 19 -49 11 -23 34 -75 51 -116 68
-159 80 -187 109 -253 17 -37 31 -70 31 -74 0 -4 11 -30 24 -58 22 -47 40 -89
102 -237 27 -64 79 -181 94 -208 18 -35 130 -2 130 38 0 9 -9 34 -20 55 -11
20 -20 42 -20 48 0 5 -11 34 -24 62 -13 29 -36 81 -51 117 -15 36 -38 88 -51
115 -13 28 -30 70 -39 94 -8 24 -19 49 -24 55 -5 6 -12 22 -16 36 -4 14 -17
48 -30 75 -12 28 -35 79 -50 115 -15 36 -40 93 -56 127 -16 34 -29 66 -29 73
0 6 -11 31 -25 56 -14 25 -25 50 -25 57 0 12 -29 76 -78 175 -14 28 -31 52
-37 52 -5 0 -29 -10 -52 -22z"/>
<path d="M4137 5434 c-46 -24 -48 -27 -42 -57 4 -18 19 -59 35 -92 15 -33 39
-88 54 -122 62 -149 80 -191 102 -238 13 -28 24 -54 24 -58 0 -4 14 -37 31
-74 29 -66 41 -94 109 -253 17 -41 40 -93 51 -116 10 -23 19 -45 19 -49 0 -4
13 -35 29 -69 15 -33 42 -92 59 -131 17 -38 38 -74 46 -79 20 -13 94 12 107
36 8 14 5 30 -10 62 -12 23 -21 49 -21 57 0 8 -8 28 -19 44 -10 17 -24 48 -31
70 -7 22 -21 56 -31 75 -11 19 -19 39 -19 44 0 5 -11 32 -24 60 -13 28 -38 85
-56 126 -18 41 -43 98 -56 127 -13 28 -24 57 -24 63 0 6 -11 31 -25 56 -14 25
-25 50 -25 57 0 6 -11 34 -24 62 -13 27 -38 84 -56 125 -17 41 -43 98 -56 125
-13 28 -24 57 -25 65 0 8 -9 29 -20 45 -11 17 -22 38 -25 48 -8 22 -19 21 -77
-9z"/>
<path d="M4490 5153 c-49 -18 -62 -58 -36 -110 8 -15 25 -55 39 -88 29 -70 91
-212 117 -270 10 -22 21 -51 25 -65 13 -42 45 -80 68 -80 12 0 37 9 55 20 41
25 42 54 2 132 -16 32 -30 64 -30 71 0 6 -11 34 -24 62 -54 113 -76 162 -76
170 0 5 -9 27 -19 49 -11 23 -26 58 -35 79 -12 31 -20 37 -43 36 -15 0 -35 -3
-43 -6z"/>
<path d="M240 4995 l0 -135 330 0 330 0 0 135 0 135 -330 0 -330 0 0 -135z"/>
<path d="M9140 4995 l0 -135 301 0 c247 0 303 3 315 14 11 11 14 44 14 135 l0
121 -315 0 -315 0 0 -135z"/>
<path d="M8510 4215 l0 -225 110 0 110 0 0 225 0 225 -110 0 -110 0 0 -225z"/>
<path d="M1250 2060 l0 -790 795 0 795 0 0 790 0 790 -795 0 -795 0 0 -790z
m1360 0 l0 -570 -565 0 -565 0 0 570 0 570 565 0 565 0 0 -570z"/>
<path d="M1700 2060 l0 -340 340 0 340 0 0 340 0 340 -340 0 -340 0 0 -340z"/>
<path d="M3290 2515 l0 -115 -115 0 -115 0 0 -340 0 -340 115 0 115 0 0 340 0
340 115 0 115 0 0 115 0 115 -115 0 -115 0 0 -115z"/>
<path d="M390 2470 c0 -5 -7 -10 -15 -10 -13 0 -15 -81 -15 -665 0 -584 2
-665 15 -665 12 0 15 -14 15 -70 0 -40 4 -70 10 -70 6 0 10 -22 10 -50 0 -38
4 -50 15 -50 9 0 15 -9 15 -25 0 -14 5 -25 10 -25 6 0 10 -11 10 -25 0 -16 6
-25 15 -25 9 0 15 -9 15 -21 0 -22 22 -49 39 -49 6 0 11 -7 11 -15 0 -8 5 -15
10 -15 6 0 10 -11 10 -25 0 -14 5 -25 11 -25 11 0 39 -25 39 -35 0 -14 30 -35
49 -35 12 0 21 -4 21 -10 0 -5 7 -10 15 -10 8 0 15 -5 15 -11 0 -17 27 -39 49
-39 12 0 21 -6 21 -15 0 -9 9 -15 25 -15 14 0 25 -4 25 -10 0 -5 11 -10 25
-10 16 0 25 -6 25 -15 0 -10 11 -15 35 -15 19 0 35 -4 35 -10 0 -6 35 -10 85
-10 69 0 85 -3 85 -15 0 -13 82 -15 675 -15 593 0 675 2 675 15 0 8 7 15 15
15 13 0 15 20 15 120 l0 120 -735 0 c-647 0 -735 2 -735 15 0 11 -11 15 -40
15 -22 0 -40 5 -40 10 0 6 -11 10 -25 10 -16 0 -25 6 -25 15 0 9 -9 15 -21 15
-19 0 -49 21 -49 35 0 10 -28 35 -39 35 -6 0 -11 5 -11 11 0 11 -25 39 -35 39
-14 0 -35 30 -35 49 0 12 -6 21 -15 21 -9 0 -15 9 -15 25 0 14 -4 25 -10 25
-5 0 -10 18 -10 40 0 29 -4 40 -15 40 -13 0 -15 85 -15 706 0 598 -2 708 -14
720 -17 17 -226 21 -226 4z"/>
<path d="M9373 2465 c-10 -11 -13 -169 -13 -720 0 -620 -2 -705 -15 -705 -11
0 -15 -11 -15 -40 0 -22 -4 -40 -10 -40 -5 0 -10 -11 -10 -25 0 -16 -6 -25
-15 -25 -9 0 -15 -9 -15 -21 0 -19 -21 -49 -35 -49 -10 0 -35 -28 -35 -39 0
-6 -5 -11 -11 -11 -11 0 -39 -25 -39 -35 0 -14 -30 -35 -49 -35 -12 0 -21 -6
-21 -15 0 -9 -9 -15 -25 -15 -14 0 -25 -4 -25 -10 0 -5 -18 -10 -40 -10 -29 0
-40 -4 -40 -15 0 -13 -86 -15 -710 -15 l-710 0 0 -120 c0 -100 3 -120 15 -120
8 0 15 -7 15 -15 0 -13 79 -15 650 -15 571 0 650 2 650 15 0 12 16 15 85 15
50 0 85 4 85 10 0 6 16 10 35 10 24 0 35 5 35 15 0 9 9 15 25 15 14 0 25 5 25
10 0 6 11 10 25 10 16 0 25 6 25 15 0 9 9 15 21 15 22 0 49 22 49 39 0 6 7 11
15 11 8 0 15 5 15 10 0 6 9 10 21 10 22 0 49 22 49 39 0 6 5 11 11 11 17 0 39
27 39 49 0 12 5 21 10 21 6 0 10 7 10 15 0 8 5 15 11 15 17 0 39 27 39 49 0
12 6 21 15 21 9 0 15 9 15 25 0 14 5 25 10 25 6 0 10 11 10 25 0 16 6 25 15
25 11 0 15 12 15 50 0 28 5 50 10 50 6 0 10 30 10 70 0 56 3 70 15 70 13 0 15
81 15 665 0 584 -2 665 -15 665 -8 0 -15 5 -15 10 0 17 -212 12 -227 -5z"/>
<path d="M8510 1605 l0 -115 110 0 110 0 0 115 0 115 -110 0 -110 0 0 -115z"/>
<path d="M3290 1380 l0 -110 115 0 115 0 0 110 0 110 -115 0 -115 0 0 -110z"/>
</g>
</svg>
