<svg xmlns="http://www.w3.org/2000/svg" viewBox="0 0 1000 1000"><defs><style>.cls-1,.cls-9{fill:#00050F}.cls-10,.cls-12,.cls-13,.cls-14,.cls-16,.cls-17,.cls-18,.cls-19,.cls-2,.cls-20,.cls-21,.cls-3,.cls-4,.cls-5,.cls-7,.cls-8{fill:none}.cls-16,.cls-19,.cls-2,.cls-20,.cls-21,.cls-3,.cls-4,.cls-5,.cls-7,.cls-9{stroke:#0A0A0A}.cls-10,.cls-17,.cls-19,.cls-2,.cls-4,.cls-8{stroke-linecap:round}.cls-10,.cls-12,.cls-13,.cls-14,.cls-16,.cls-17,.cls-18,.cls-19,.cls-2,.cls-20,.cls-21,.cls-3,.cls-4,.cls-5,.cls-7,.cls-8,.cls-9{stroke-miterlimit:10}.cls-10,.cls-14,.cls-16,.cls-2,.cls-8{stroke-width:6px}.cls-12,.cls-3,.cls-4,.cls-9{stroke-width:5px}.cls-17,.cls-18,.cls-19,.cls-5{stroke-width:4px}.cls-6{fill:#0A0A0A}.cls-13,.cls-7{stroke-width:3px}.cls-12,.cls-13,.cls-14,.cls-17,.cls-18,.cls-8{stroke:#00050F}.cls-10{stroke:#00000F}.cls-11{fill:#00000F}.cls-20{stroke-width:2px}.cls-21{stroke-width:10px}</style></defs><g id="Layer_2" data-name="Layer 2"><g id="Layer_1-2" data-name="Layer 1"><path class="cls-1" d="M666.47 647.81a25.09 25.09 0 0 0-20.15 8 25.17 25.17 0 1 0-4.32 27.67 25.16 25.16 0 1 0 24.52-35.67zm-51.28 16.86c-3.53 1.54-7.5.24-8.88-2.91s.36-7 3.88-8.49 7.5-.25 8.88 2.9-.36 6.95-3.88 8.5zm43.17 3.9c-3.53 1.55-7.5.25-8.88-2.9s.36-6.95 3.88-8.5 7.5-.24 8.88 2.91-.36 6.92-3.88 8.49z"/><path class="cls-2" d="M656.68 684.37s17.43 8.49 25.71-12.83M614.79 679.55s14.22 6.92 23.07-7.45"/><path class="cls-3" d="M642.37 684.17a25.85 25.85 0 0 1-43.25-24.55c3.39-13.87 16.66-19.45 30.53-16.06a28.52 28.52 0 0 1 15.91 9.7"/><path class="cls-3" d="M690 677.63a25.84 25.84 0 0 1-50.21-12.27c3.38-13.87 16.66-19.45 30.52-16.06s23.07 14.46 19.69 28.33z"/><path class="cls-4" d="M658.45 658a14 14 0 0 1 11.85-8.65M619.06 650.78s1.9-5.31 9.73-6.79M633.81 643.66s11.88-8.1 14.2-28.6a.59.59 0 0 1 .89-.44c3.64 2.32 18.73 10.28 17.58 34.33M635 611.72s9.4 6.45 28.44-.83"/><path class="cls-1" d="M721.85 717c-13.68 6.46-14.44 25.23-15 32.42s8.4 17.19 8.92 24.26 6.21 7.51 6.21 7.51c-3-8.9 1.91-18.42 1.91-18.42-11.29-11.2-2.04-45.77-2.04-45.77zM730.23 773.9c-4 13.12 7.86 9 7.86 9-6.96-1.52-7.86-9-7.86-9zM746.85 774.44c-2.54 13.48 8.8 8 8.8 8-7.08-.67-8.8-8-8.8-8z"/><path class="cls-1" d="M708.17 751.21l-2.58 3.08 2 7.24 8.51 7.73-2.22-12.5-5.71-5.55z"/><path class="cls-5" d="M743.44 711.82a33.66 33.66 0 0 0-36.84 29.93s.57-5.54-.86 8.28 6.11 14.35 9.07 18.79a6.3 6.3 0 0 1 .92 4.87c-.78 3.55-1.51 6.83 4.24 7.42 7.94.83 6.73-4.17 8.78-7a.1.1 0 0 1 .18 0c1.35 3-3.42 9.22 7 10.3s7-6.07 9-8.67a.11.11 0 0 1 .18 0c1.3 3.16-.13 7.91 7.15 8.66 5.34.55 5.51-2.89 5.61-6.58a6.34 6.34 0 0 1 1.91-4.35c3.78-3.71 11.53-4.51 12.78-16.58s.85-8.28.85-8.28a33.66 33.66 0 0 0-29.97-36.79z"/><rect class="cls-6" x="743.74" y="746.78" width="21.86" height="18.49" rx="9.25" ry="9.25" transform="rotate(-16.7 754.827 756.147)"/><rect class="cls-6" x="712.45" y="743.54" width="21.86" height="18.49" rx="9.25" ry="9.25" transform="rotate(-151.48 723.372 752.793)"/><path class="cls-1" d="M617.59 847.55s17.68 19.7 55 33.2c0 0-7.41 6.21-19.44 1.11s-29.6-18.32-29.6-18.32-10.49-7.37-5.96-15.99zM630.7 838.26l-4.72 3.31.88 6.05 15.8 8.63 5.53-4.24-.71-4.76-16.78-8.99z"/><path class="cls-3" d="M680.41 870.42l-2.36 4.05a19 19 0 0 1-25.93 6.82l-25.94-15.92a19 19 0 0 1-6.81-25.92l1.69-2.9a19 19 0 0 1 25.94-6.81l26.6 14.76a19 19 0 0 1 6.81 25.92z"/><rect class="cls-3" x="631.96" y="835.62" width="10.52" height="23.99" rx="5.26" ry="5.26" transform="rotate(120.27 637.212 847.62)"/><path class="cls-3" d="M644.22 845.62l7.68-13.16M630.7 868.79l7.68-13.16"/><path class="cls-4" d="M626.86 841.57l-6.51-3.8s-9.73-8.91-16.57-1.52-17.15-1.19-17.15-1.19"/><path class="cls-6" d="M568.8 750.47v14.86h-.09v18.09a15.32 15.32 0 0 0-7.09 3.63c-4.71 4.09-6.71 9.79-4.48 12.74s7.87 2 12.58-2c3.48-3 5.46-6.91 5.37-9.93v-22.71l20.39-4.4v16.91a15.32 15.32 0 0 0-7.09 3.63c-4.71 4.09-6.71 9.79-4.48 12.74s7.87 2 12.58-2c3.48-3 5.46-6.91 5.37-9.93v-38.77z"/><path class="cls-1" d="M276.88 696.06a13.12 13.12 0 0 1-8.67 9.23.51.51 0 0 0 0 1 13.1 13.1 0 0 1 8.67 9.22.51.51 0 0 0 1 0 13.13 13.13 0 0 1 8.68-9.22.51.51 0 0 0 0-1 13.15 13.15 0 0 1-8.68-9.23.51.51 0 0 0-1 0zM337.87 723.42s8.58 20.81 1.79 30.15l2.35 3.54.69 6.53-1 1.9-2.44-.52-5.1 3.44s-1.18 21-14.27 27.29l6.31-.61 5.93-4.23 8.14-13.2 2.71-6.13-.16-4 1.85-3.33s3.55-3.85 4-14-2.67-22-10.8-26.83zM294.92 725.07s-6.95 21.42.54 30.2l-2.07 3.73-.19 6.56 1.12 1.83 2.39-.71 5.35 3s2.79 20.89 16.33 26.11l-6.34-.12-6.24-3.76-9.13-12.54-3.17-5.9-.16-4-2.1-3.18s-3.83-3.57-5.1-13.67 1.07-22.1 8.77-27.55zM310.18 761.61l-2.76-2.6a1.32 1.32 0 0 1-.25-1.58l2.73-5.09a1.3 1.3 0 0 0-.16-1.48l-2.3-2.69a1.34 1.34 0 0 1-.16-1.48l1.32-2.44a1.32 1.32 0 0 1 2.39.14l2.79 7.16a1.5 1.5 0 0 1 .09.52l-.27 8.25a1.31 1.31 0 0 1-.92 1.22l-1.21.37a1.28 1.28 0 0 1-1.29-.3zM324.51 761.06l2.54-2.8a1.31 1.31 0 0 0 .13-1.6l-3.11-4.86a1.31 1.31 0 0 1 0-1.49l2.09-2.86a1.31 1.31 0 0 0 0-1.49l-1.5-2.34a1.32 1.32 0 0 0-2.37.33l-2.23 7.35a1.35 1.35 0 0 0-.05.53L321 760a1.32 1.32 0 0 0 1 1.14l1.23.28a1.32 1.32 0 0 0 1.28-.36z"/><path class="cls-3" d="M349 747.22A32.27 32.27 0 1 0 291.86 769c2.85 8.62 8.5 18.78 11.66 21.35 5.71 4.64 5.34 6.63 15.05 6.26s9.2-2.33 14.53-7.4c2.95-2.81 7.81-13.37 10-22.18a32.07 32.07 0 0 0 5.9-19.81z"/><path class="cls-6" d="M331.85 770.82c6.87 1.71 16.49-10.89 9.4-16.76-9.8-8.12-17.52 2.89-19.46 6.09a1.84 1.84 0 0 0-.12 1.72c.95 2.13 3.88 7.38 10.18 8.95zM303.87 772.26c-7 2.31-17.95-9.94-11.09-16.58 9.52-9.2 18.4 1.67 20.63 4.78a1.84 1.84 0 0 1 .25 1.7c-.79 2.24-3.37 7.96-9.79 10.1z"/><path class="cls-1" d="M340.43 758a4.35 4.35 0 1 1-4.45-3.58 4.07 4.07 0 0 1 4.45 3.58zM304 755.66a3.79 3.79 0 1 0 4.45 3.59 4.06 4.06 0 0 0-4.45-3.59zM216.74 842.82l25.48-48.93h6.66l-32.14 48.93zM230.64 761.88l-7.53 35.18 6.37-.72 2.02-34.46h-.86z"/><path class="cls-3" d="M251.34 792.63l-22.01 1.74 3.87-38.58-36.41 56.76 22.69-1.15-4.54 38.14 36.4-56.91z"/><path class="cls-6" d="M241.87 912.1h7v7h-7z"/><path class="cls-1" d="M260.42 925.47h7v7h-7zM183.45 966.33a34.2 34.2 0 0 1-4.51-68.11 45 45 0 0 0-5.09-.3 43.81 43.81 0 1 0 43.8 43.81 45.07 45.07 0 0 0-.3-5.1 34.21 34.21 0 0 1-33.9 29.7z"/><circle class="cls-3" cx="173.13" cy="941.37" r="42.82"/><path class="cls-5" d="M175.15 898.6s32.65 45.06 0 85.54M151.75 904.71a26.74 26.74 0 0 1 7.73 10.17c4.24 9.29 14 22 32.79 18.53S204.43 911 204.43 911"/><path class="cls-5" d="M151.21 979.2a21.69 21.69 0 0 0 8.27-7.43c4.24-6.51 14-15.42 32.79-13 12.57 1.63 13.73 8.13 13.17 12.23M130.31 935.52s56.58 24.32 85.42 4.89"/><path class="cls-1" d="M115.71 797.85l6.1 18.26-14.11 31.44 38.05-29.32-2.26-7.19-9.46-10.28-18.32-2.91z"/><path class="cls-3" d="M137.86 801.65l11 15.7a1.54 1.54 0 0 1-.35 2.12l-41.7 30.36a1.53 1.53 0 0 1-2-.17l-35.72-37.21a1.54 1.54 0 0 1 0-2.15l13.59-13.53a1.52 1.52 0 0 1 1.21-.44l52.85 4.67a1.54 1.54 0 0 1 1.12.65z"/><path class="cls-7" d="M68.05 811.36l81.68 7.22M106.03 847.4l-12.77-33.81 9.26-15.61M106.03 847.4l18.5-31.05-7.02-17.05"/><path class="cls-6" d="M186.65 725.62h6.31v6.31h-6.31z"/><path class="cls-1" d="M279.43 580.11h6.31v6.31h-6.31zM339.13 620.56h6.31v6.31h-6.31z"/><path class="cls-6" d="M86.24 590.61h12v12h-12zM111.78 620.56h6.31v6.31h-6.31z"/><path class="cls-1" d="M54.35 647.62h12v12h-12zM186.59 9.26h12v12h-12zM150.41 856.21h12v12h-12zM55.67 633.64h6.31v6.31h-6.31zM131.53 870.97h6.31v6.31h-6.31z"/><path class="cls-6" d="M156.41 592.34h12v12h-12zM130.48 45.95h12v12h-12z"/><path class="cls-1" d="M173.16 606.38h7v7h-7zM327.33 634.59h7v7h-7z"/><path class="cls-6" d="M188.02 598.34h7v7h-7z"/><path class="cls-1" d="M220.78 696.82h7v7h-7z"/><path class="cls-6" d="M51.18 672.59a13.12 13.12 0 0 1-8.67 9.22.51.51 0 0 0 0 1 13.1 13.1 0 0 1 8.67 9.19.51.51 0 0 0 1 0 13.13 13.13 0 0 1 8.68-9.22.51.51 0 0 0 0-1 13.15 13.15 0 0 1-8.68-9.22.51.51 0 0 0-1 .03z"/><path class="cls-1" d="M129.23 645.92a13.12 13.12 0 0 1-8.67 9.22.51.51 0 0 0 0 1 13.1 13.1 0 0 1 8.67 9.22.51.51 0 0 0 1 0 13.13 13.13 0 0 1 8.68-9.22.51.51 0 0 0 0-1 13.15 13.15 0 0 1-8.68-9.22.51.51 0 0 0-1 0zM260.89 692.67a13.13 13.13 0 0 1-8.68 9.22.51.51 0 0 0 0 1 13.15 13.15 0 0 1 8.68 9.22.51.51 0 0 0 1 0 13.15 13.15 0 0 1 8.68-9.22.51.51 0 0 0 0-1 13.13 13.13 0 0 1-8.68-9.22.51.51 0 0 0-1 0z"/><path class="cls-3" d="M145.78 710.83l-17.93-.91a2.58 2.58 0 0 1-2.45-2.72l.9-17.92a2.59 2.59 0 0 0-2.46-2.72l-23.68-1.2a2.59 2.59 0 0 0-2.72 2.46l-.91 17.92a2.59 2.59 0 0 1-2.72 2.46l-17.92-.91a2.59 2.59 0 0 0-2.72 2.46L72 733.44a2.6 2.6 0 0 0 2.46 2.72l17.92.9a2.6 2.6 0 0 1 2.46 2.72l-.91 17.93a2.59 2.59 0 0 0 2.46 2.72l23.69 1.2a2.6 2.6 0 0 0 2.72-2.46l.9-17.93a2.6 2.6 0 0 1 2.72-2.46l17.93.91a2.59 2.59 0 0 0 2.72-2.46l1.2-23.68a2.59 2.59 0 0 0-2.49-2.72z"/><path class="cls-6" d="M103.59 701.86l15.64.79-7.3-10.56-8.34 9.77zM117.08 745.15l-15.64-.79 7.31 10.56 8.33-9.77zM88.69 730.25l.8-15.64-10.57 7.3 9.77 8.34zM131.98 716.76l-.79 15.64 10.57-7.31-9.78-8.33z"/><circle class="cls-1" cx="110.1" cy="723.49" r="8.88"/><path class="cls-1" d="M277.24 646.84s-27.86 6-38.93-3c0 0 .1 6.85 9.25 10.14l-2.71 9.42-20.08-2.87-4.94 9.83 7.91 1.31 7.33-4.08 3.87 3.16 19.68 1.6.56-6.9-1.28-.19 2-5.81.18-3.76a74.25 74.25 0 0 0 9.17-.76s17.99-5.17 7.99-8.09zM262.86 620.43l1.16-14.16-40.87-3.34-.78 7.41 29.51 2.05-.89 9.99 11.87-1.95z"/><path class="cls-1" d="M269.62 597.72l-49.79-2.88-.67 7.77 48.84 3.98 1.62-8.87z"/><rect class="cls-3" x="219.04" y="577.9" width="51.27" height="26.74" rx="1.14" ry="1.14" transform="rotate(4.66 244.905 591.935)"/><path class="cls-3" d="M262.68 622.62l1.32-16.35-40.87-3.34-1.62 19.87a3.63 3.63 0 0 1-3.66 3.34 3.64 3.64 0 0 0-3.66 3.34l-.06.76a3.6 3.6 0 0 1-3 3.27 11.48 11.48 0 0 1-5.58 0c-7.43-1.2-27.69-6.89-24.57 23.47l78.32 6.4.83-10.3M181.04 657l-.74 9 49.67 4.05 4.9-3.96 4.07 4.7 19.68 1.6.74-9"/><path class="cls-6" d="M289.1 620.43a.53.53 0 0 1 .53.55c-.12 1.74-2.46 10.92-21.45 13.26-.08 0-.08.13 0 .13l18.31 1.72a.26.26 0 0 1 .25.34c-.58 1.64-2.57 7.14-24.13 7.73a.06.06 0 0 0 0 .12l15.5 4a.38.38 0 0 1 .26.57c-.93 1.54-11 3.64-20.92 3.64-1.68 0-3.35-.06-5-.19-11.26-.92-13.3-7.31-12.68-14.93A13.85 13.85 0 0 1 250 625.15l39.11-4.72m0-5h-.63l-39.11 4.72h-.36l-.35.1A18.88 18.88 0 0 0 234.8 637c-1.27 15.53 8.68 19.62 17.25 20.32 1.7.14 3.52.21 5.39.21a84 84 0 0 0 14.75-1.33c7.11-1.31 9.32-2.84 10.46-4.73a5.4 5.4 0 0 0 .26-5.06l-.18-.34c5.85-2.27 7.81-5.36 8.72-7.94a5.3 5.3 0 0 0-.64-4.76 5.23 5.23 0 0 0-2-1.72c5.19-4.52 5.76-9.41 5.83-10.29a5.53 5.53 0 0 0-5.52-5.9z"/><path class="cls-8" d="M219.99 636.88l4.37 4.37"/><path class="cls-3" d="M379.05 617.52a38 38 0 0 0-12.69-.87 38.16 38.16 0 0 1-16.84 70.07 38.15 38.15 0 1 0 29.53-69.2z"/><circle class="cls-1" cx="382.75" cy="680.03" r="1.64"/><circle class="cls-1" cx="398" cy="656.08" r="4.71"/><circle class="cls-1" cx="390.75" cy="664.07" r="1.3"/><circle class="cls-1" cx="395.5" cy="669.05" r="1.08"/><circle class="cls-1" cx="386.5" cy="629.55" r="1"/><path class="cls-6" d="M160.04 326.57h6.31v6.31h-6.31z"/><path class="cls-1" d="M149.38 315.4h6.31v6.31h-6.31zM961.1 44.94h6.31v6.31h-6.31z"/><path class="cls-1" transform="rotate(180 42.02 329.725)" d="M36.02 323.73h12v12h-12z"/><path class="cls-6" d="M194.68 347.97h12v12h-12zM36.02 324.09h12v12h-12z"/><path class="cls-1" d="M219.32 325.81h12v12h-12zM15.39 310.13h12v12h-12zM206.3 317.34h6.31v6.31h-6.31zM256.98 381.22h7v7h-7z"/><path class="cls-6" d="M263.98 366.97h13.75v13.75h-13.75zM223.47 396.18a13.13 13.13 0 0 1-8.68 9.22.51.51 0 0 0 0 1 13.15 13.15 0 0 1 8.68 9.22.51.51 0 0 0 1 0 13.12 13.12 0 0 1 8.67-9.22.51.51 0 0 0 0-1 13.1 13.1 0 0 1-8.67-9.22.51.51 0 0 0-1 0zM144.91 103.82a13.13 13.13 0 0 1-8.68 9.22.51.51 0 0 0 0 1 13.15 13.15 0 0 1 8.68 9.23.51.51 0 0 0 1 0 13.15 13.15 0 0 1 8.68-9.23.51.51 0 0 0 0-1 13.13 13.13 0 0 1-8.68-9.22.51.51 0 0 0-1 0z"/><path class="cls-1" d="M124 411.1l-8.43 1.72a34.56 34.56 0 0 1-.8 21.77c-9.18-3.83-12.24-12.62-13.24-18.91l-10.73 2.18s-7.47 17.58 9.28 30.57l1.71-8s4 12.47 19.92 25.63c0 0 5.71-17.94 5.54-30.59l5.64 5.81s3.94-21.88-8.89-30.18z"/><path class="cls-8" d="M114.39 330.09a161.46 161.46 0 0 1 1.38 65.44"/><path class="cls-1" d="M52.08 421.75s6.62-13.83 26.37-26.19l-13-22S42.42 385 52.08 421.75zM151.41 373.52l-14.07-10.29-8.62-.23-.15 16.79 1.82 9.75 18.79 2.24 10.82 8.21-.02-8.99-8.57-17.48zM84.09 403.81l3.33 9.73 3.98 3.15 31.94-5.96 1.42-9.7-2.2-5.41-38.47 8.19zM103.31 323.7a12.72 12.72 0 1 0-10.17 14.85 12.71 12.71 0 0 0 10.17-14.85zm-15.61 4a5.45 5.45 0 1 1 5.44-5.45 5.45 5.45 0 0 1-5.44 5.48zM105.5 355.82a9 9 0 1 0-7.18 10.47 9 9 0 0 0 7.18-10.47zm-10.79 3.44a3.65 3.65 0 1 1 3.64-3.65 3.65 3.65 0 0 1-3.64 3.65z"/><path class="cls-3" d="M69 371.36s-30.86 15.26-15.38 54.74a.07.07 0 0 0 .13 0c0-3-.07-23 25.37-26.95"/><path class="cls-3" d="M104.18 397.69l23.39-4.36C137.77 291.23 82.39 281 82.39 281s-47.94 29.56-1.59 121.1z"/><path class="cls-3" d="M124.7 393.86l.15 16.59-17.67 3.3-17.67 3.29-5.84-15.52M127.49 360.45s34.29 3.09 34.09 45.5c0 .07-.1.1-.12 0-1.06-2.78-8.24-21.49-33.38-16"/><circle class="cls-3" cx="90.81" cy="326.04" r="13.92"/><circle class="cls-3" cx="96.67" cy="357.47" r="8.98"/><path class="cls-3" d="M104.18 397.69l3 16.06M114.97 395.68L116 412.1M93.39 399.7l4.96 15.69"/><path class="cls-6" d="M286.99 179.59h6.31v6.31h-6.31z"/><path class="cls-1" d="M293.3 173.28h6.31v6.31h-6.31zM233.02 161.53h6.31v6.31h-6.31zM285.3 146.63h12v12h-12zM942.02 7.27h12v12h-12zM189.43 180.28h6.31v6.31h-6.31zM224.9 168.86h6.31v6.31h-6.31zM364.15 204.35h12v12h-12zM104.69 1.22h12v12h-12z"/><path class="cls-6" d="M381.25 217.35h6.31v6.31h-6.31z"/><path class="cls-6" transform="rotate(180 207.62 156.35)" d="M204.12 152.85h7v7h-7z"/><path class="cls-6" d="M256.54 219.05h13.75v13.75h-13.75zM313.24 193.7a13.13 13.13 0 0 1-8.68 9.22.51.51 0 0 0 0 1 13.15 13.15 0 0 1 8.68 9.22.51.51 0 0 0 1 0 13.15 13.15 0 0 1 8.68-9.22.51.51 0 0 0 0-1 13.13 13.13 0 0 1-8.68-9.22.51.51 0 0 0-1 0z"/><rect class="cls-9" x="211.38" y="214.45" width="24.02" height="15.01" rx=".97" ry=".97" transform="rotate(25 223.382 221.952)"/><circle class="cls-9" cx="208.5" cy="253.15" r="32.57"/><path class="cls-10" d="M207.12 272.66s20 0 21.74-20.57"/><path class="cls-4" d="M228.06 216.08s1.4-14.87 13.38-14.15 14.42-6.17 15.16-10.44"/><circle class="cls-11" cx="197.22" cy="238.57" r="7.75"/><path class="cls-1" transform="rotate(-7.93 342.902 119.445)" d="M333.22 116.44h18.95v5.9h-18.95z"/><path class="cls-3" d="M353.94 131.42l-2.39-17.14-18.76 2.62 2.38 17.1a27.79 27.79 0 1 0 18.77-2.61z"/><path class="cls-3" transform="rotate(-7.93 341.448 109.052)" d="M327.24 102.32h28.03v13.38h-28.03z"/><path class="cls-1" d="M329.81 150a20.27 20.27 0 1 0 36.63-.15z"/><circle class="cls-11" cx="355.62" cy="160.69" r="3.67"/><circle class="cls-11" cx="349.71" cy="166.23" r="2.12"/><circle class="cls-11" cx="355.14" cy="172.63" r="1.06"/><circle class="cls-12" cx="344.8" cy="84.49" r="7.16"/><circle class="cls-12" cx="355.15" cy="66.86" r="4.14"/><path class="cls-10" d="M352.79 137.36s-19.15 5.73-14.92 25.94"/><path class="cls-1" d="M293.83 253.8l1.7 4.87L313 255l-2.22-7.52h-7.36s-7.3 2.65-9.59 6.32zM341.4 337.66l-4.86 13.47 58.87-7.78 7.51-8.39-.15-6.05-7.36-.5-54.01 9.25z"/><path class="cls-1" d="M314 345.63l8.83 5.5 7.34 1.5 17.33-8 28.33-8.17c-16.16.67-62.33 7.5-62.33 7.5z"/><path class="cls-3" d="M373.43 332.2c-3.64-6.84-5.56-17.13-5.56-30.87 0-27.33 14.71-64.38 0-64.38l-63.87 8.8"/><path class="cls-3" d="M327.65 351.13l62.51-8.83c12.44-.81 12.76-15 12.76-15l-61.38 8.8s-.33 15-13.89 15-21.16-13.67-21.16-41 14.72-64.38 0-64.38S293.25 259 293.25 259l19.75-2.8"/><path class="cls-1" d="M355.59 285.69c-2.46-6.46-8.68-11.77-12.17-14.36 12.49-5.5 11.61-15.9 11.61-15.9a21.65 21.65 0 0 0-14 13.92c-4.2-12-14.78-10-14.78-10A16.24 16.24 0 0 0 338 271.76c-4.24 3.41-11.89 10.81-14.65 21.44-3.9 15 12.47 16.09 20.74 12.89s15.01-11.19 11.5-20.4z"/><path class="cls-13" d="M317.04 317.63l12.67-1.67M334.37 314.96l6.17-.83M344.54 313.46l6.83-1M357.37 311.63l3.67-.67M323.71 321.29l24.66-3.83M351.87 317.13l6.17-1.17M320.71 327.79l17-3.33M341.04 323.96l20-3.33"/><path class="cls-6" d="M18.59 131.79h12v12h-12z"/><path class="cls-1" d="M40.09 234.09h12v12h-12z"/><path class="cls-6" d="M77.92 242.93h6.31v6.31h-6.31zM145.97 240.57h6.31v6.31h-6.31z"/><path class="cls-1" d="M178.13 175.63h6.31v6.31h-6.31zM9 167.62v13.64a6.3 6.3 0 0 0-2.94 1.5c-1.94 1.69-2.77 4.05-1.85 5.27s3.26.84 5.2-.85a5.78 5.78 0 0 0 2.23-4.11v-9.38l8.44-1.82v7a6.23 6.23 0 0 0-2.93 1.5c-1.95 1.69-2.78 4-1.85 5.27s3.25.84 5.2-.85a5.76 5.76 0 0 0 2.22-4.11v-16zM52.15 175.05s-3.15 16.8 11.56 20.79l-.16-18.69s-3.55-2.26-11.4-2.1zM99.14 181.3H64.51v10s26.79 5.91 34.63-5.91v-2.18 2.18c7.83 11.82 34.63 5.91 34.63 5.91v-10H99.14zM146.19 175.05c-7.84-.16-11.4 2.1-11.4 2.1l-.16 18.69c14.68-3.99 11.56-20.79 11.56-20.79zM101.33 201.64H77.94l-3.5 4.12h49.46l-3.5-4.12h-19.07z"/><path class="cls-3" d="M99.2 137.79a35.49 35.49 0 0 1 35.49 35.49v39.81A11.72 11.72 0 0 1 123 224.81H75.43a11.72 11.72 0 0 1-11.72-11.72v-39.81a35.49 35.49 0 0 1 35.49-35.49zM63.71 179.69h70.98"/><rect class="cls-3" x="73.44" y="200.37" width="51.39" height="13.47" rx="6.73" ry="6.73"/><path class="cls-3" d="M99.14 200.37v13.47M86.7 200.37v13.47M111.54 200.37v13.47"/><path class="cls-6" d="M99.14 200.37h12.4v13.47h-12.4zM70.55 179.69s-.31 8.66 11.12 8.66 10.82-8.66 10.82-8.66zM105.77 179.69s-.31 8.66 11.13 8.66 10.82-8.66 10.82-8.66z"/><path class="cls-4" d="M99.14 179.69v-16.9M109.58 179.69v-9.27M88.56 179.69v-9.27M134.69 176.19s8.28-8.86 18.58-9.48c0 0 6.12 30.4-18.58 31.22M134.69 189.48l7.45-6.59M63.55 197.93C38.85 197.11 45 166.71 45 166.71c10.3.62 18.58 9.48 18.58 9.48M63.55 189.48l-7.45-6.59"/><path class="cls-6" d="M119.74 248a13.15 13.15 0 0 1-8.68 9.22.51.51 0 0 0 0 1 13.13 13.13 0 0 1 8.68 9.22.51.51 0 0 0 1 0 13.13 13.13 0 0 1 8.68-9.22.51.51 0 0 0 0-1 13.15 13.15 0 0 1-8.68-9.22.51.51 0 0 0-1 0z"/><path class="cls-1" d="M626.17 213.6l-12.1-12.23-2.66.74-5.63 15.28-8.88 7-9.65 4.52-5.31-1.31-4.14-13.34-8.9 10.26-3.9-.52-9.59-3.87a37.16 37.16 0 0 0 1.51 15.22h-4.39l-10.9 1.92-8.55-.89-6.57-2.94-7.21-6.46-3.11-2.98-6.73 17-.46 16.16 4.93 18.4 4.55 6.05 2.86-16.44 5.84-2 11.32 4.08 2.58 3.44 3-4.41 4-5.85 4.44-.12 2.44-5.73 3.82-4.75 1.78-2.58 4.19 7.07 12.42 14.64 5.77-22.48 2.86-3.9 6.69 4.89 2.71 2.33 10.17.73 3 4.84 7.22-11.45 7.47-2.13 7.92 8.08 2.16 2 1.73-11.79-1.62-12.47zm-65.9 18.65c5.64-3.31 8.43 5.76 8.43 5.76-6.36 4.23-8.43-5.76-8.43-5.76zm11.82 5.18s1.29-8.5 6.52-9.28c0 0 1.92 9.27-6.52 9.28z"/><path class="cls-3" d="M560.76 248.65c-7.08.85-6.59 11.59-6.59 11.59-11.84-.43-11.85 13.29-11.85 13.29s-6.4-11.82-16-10.27c-9 1.45-7.77 20.17-7.77 20.17-21.91-32.1-1.79-60.25-1.79-60.25 11.48 22.78 40.16 12.19 40.16 12.19"/><path class="cls-3" d="M568.07 225.61l9.29-12.39c13 28.36-.13 56.46-.13 56.46s-23-19.17-22.44-50.88z"/><path class="cls-3" d="M582 229.16s28.61-3.58 29.65-29.46c0 0 28.06 16.23 21.71 55.33 0 0-5.86-16-14.12-13.21-8.86 3-10.07 15.17-10.07 15.17s-5.3-12.4-15.27-6.57c0 0-3.72-9.95-10.1-7.47"/><ellipse class="cls-3" cx="771.42" cy="877.62" rx="13.72" ry="42.41"/><ellipse class="cls-3" cx="771.42" cy="877.62" rx="44.75" ry="11.49" transform="rotate(-26.68 771.486 877.673)"/><ellipse class="cls-3" cx="771.42" cy="877.62" rx="11.49" ry="44.75" transform="rotate(-63.32 771.385 877.608)"/><circle class="cls-6" cx="780.15" cy="843.53" r="5.29"/><circle class="cls-6" cx="744.39" cy="900.07" r="7.48"/><path class="cls-1" d="M886.25 832.62h12v12h-12z"/><path class="cls-6" d="M702.65 806.98h12v12h-12zM357.7 947.94h12v12h-12zM233.68 856.96h12v12h-12zM620.86 896.36h12v12h-12zM794.56 958.78h12v12h-12zM871.15 973.2h12v12h-12zM903.35 845.62h6.31v6.31h-6.31zM802.91 919.72h6.31v6.31h-6.31z"/><path class="cls-1" d="M718.34 820.77h7v7h-7zM650.55 582.92h7v7h-7zM732.38 929.52h7v7h-7zM356.71 907.36h7v7h-7zM253.92 874.12h7v7h-7zM282.32 838.07h7v7h-7zM863.8 985.13h7v7h-7zM820.5 733.03h7v7h-7zM834.83 722.12h7v7h-7z"/><path class="cls-6" d="M816.84 791.74V763.08h-7.16v7.17h-7.17v7.16h7.17V798.9h-7.17v7.17H824v-7.17h-7.16v-7.16zM831.17 770.25h7.16v28.66h-7.16zM852.66 770.25h7.16v28.66h-7.16zM838.33 799v7.17h14.33V799h-14.33zM845.5 763.08h-7.17v7.17h14.33v-7.17h-7.16zM867.3 770.25h7.16v28.66h-7.16zM888.79 770.25h7.16v28.66h-7.16zM874.46 799v7.17h14.33V799h-14.33zM881.63 763.08h-7.17v7.17h14.33v-7.17h-7.16z"/><path class="cls-14" d="M801.6 606.02l24.89-2.63M788.64 622.06l24.89-2.64M775.68 638.09l24.88-2.63"/><path class="cls-3" d="M792.22 588.65H810v59.73a4.53 4.53 0 0 1-4.53 4.53h-8.77a4.53 4.53 0 0 1-4.53-4.53v-59.73z" transform="rotate(38.96 801.075 620.679)"/><rect class="cls-3" x="812.52" y="586" width="24.55" height="11.02" rx="1.11" ry="1.11" transform="rotate(38.96 824.726 591.415)"/><path class="cls-6" d="M834.47 551.7a1.36 1.36 0 0 1 .89.32l8.27 6.68a1.43 1.43 0 0 0 1.68.09l8.91-5.8a1.46 1.46 0 0 1 .78-.23 1.44 1.44 0 0 1 1.34 1.94l-3.81 9.93a1.43 1.43 0 0 0 .44 1.62l8.27 6.69a1.43 1.43 0 0 1-.89 2.54h-.08l-10.62-.55h-.08a1.42 1.42 0 0 0-1.33.91l-3.8 9.93a1.43 1.43 0 0 1-2.72-.14L839 575.37a1.43 1.43 0 0 0-1.3-1.06l-10.7-.55a1.43 1.43 0 0 1-.71-2.62l8.91-5.8a1.44 1.44 0 0 0 .61-1.57l-2.76-10.27a1.42 1.42 0 0 1 1.38-1.8m0-5a6.49 6.49 0 0 0-5.12 2.53 6.35 6.35 0 0 0-1.09 5.57l2.08 7.76-6.69 4.44a6.42 6.42 0 0 0 3.17 11.8l8 .42 2.08 7.76a6.43 6.43 0 0 0 12.22.63l2.87-7.5 8 .41h.34a6.43 6.43 0 0 0 4-11.43l-6.25-5 2.88-7.51a6.43 6.43 0 0 0-9.51-7.69l-6.74 4.39-6.25-5.06a6.49 6.49 0 0 0-4-1.43z"/><path class="cls-8" d="M843.73 573.91s.68-4.31 1.93-4.72a15.26 15.26 0 0 1 4.37 0"/><path class="cls-1" d="M832.14 395.71l9.15-1.26s1.11-17.67-14.1-11.16c0 0 4.81 2.43 4.95 12.42zM840.19 421.22l1.5-1.35s3.68-9.91-.33-13.67-12.93 10.2-12.93 10.2c-15.4 8.44-70 4.47-82.6 3.43l-31.1-7.45-1.76 2 .82 6.79 2.32 2.34 6.61-1.55 6.4 6.46 13.27-1.13 56.33 7.17 5.44 3.37 9.28-4.61 8 3.86 6.7-.81 4.14-3.37 6.94 3.1 3-3.45zm-43 6.52l-33.15-3.55-5.69-1.36a258.25 258.25 0 0 0 47.7 3.24z"/><path class="cls-3" d="M777.36 378.21C784 381 790.05 394.32 804 394.73s19.5-8.9 21.29-10 7.49-7.29 12.47-1.06S841.5 405 841.5 405c3.09 5.13-.53 17.91-.53 17.91-63.6 11.6-130.81-12-130.81-12a8.38 8.38 0 0 1 3.16-11.41c7.11-4.58 29.4-5.67 48.38-14.36 10.05-4.6 10.2-9.14 15.66-6.93z"/><path class="cls-3" d="M841 422.88s2 7.62.93 11.6-6.34-.26-9.42-2.76-5.05 8-10.18 5.78-6.39-6.05-11.37-3.4-4.54 6.39-8.77 2.08-5.55-2.94-20.79-3.07-37.81-5.39-41.38-6.44-7.32 2.57-9.8 2.3-4.06-7.47-7-8-8.12 3.83-9.56 3.17-2.61-12.14-2.61-12.14M743.49 391.39s7.74.78 15.25 12M755.86 387.54s9.45 4.57 13.07 11.44"/><path class="cls-3" d="M726.6 395.26s6.68 11.08 19.42 11.1 32.43-14.82 47-15.85"/><path class="cls-14" d="M761.58 408.15l11.17 9.96M773.81 408.22l11.17 9.96M785.92 407.46l11.17 9.96"/><path class="cls-3" d="M841.5 405s-14.16 1.61-14.47 19.9M765.35 383.24s9.62 4.15 14.3 10.83"/><path class="cls-1" d="M887.65 289.43s-5.86 2.47-10.39-.39-4-8.34-2.29-12.17l-1.69-7.76-4.1 6.8c.37 4.17-.87 9.54-6.09 10.78s-10-3-10-3l-6.58 2.09 5.56 4.1s5.85-2.47 10.39.39 4 8.33 2.29 12.17l1.69 7.75 4.09-6.8c-.36-4.17.88-9.53 6.1-10.78s10 3 10 3l6.58-2.08zm-18.44 4.28s-4-.87-3.38-4.72 4.72-3.38 4.72-3.38 4 .88 3.38 4.72-4.72 3.38-4.72 3.38z"/><path class="cls-3" d="M875.38 306.81a8 8 0 0 1 15.56-.66l31.61-7.77-27.07-17.31a8 8 0 1 1-8.79-11.14L878.6 237l-18.24 28.52a8 8 0 1 1-11.78 7.72l-31.37 7.71 27.54 17.62a8 8 0 1 1 8.61 12l7.8 31.75 17.66-27.6a8 8 0 0 1-3.44-7.91z"/><circle class="cls-3" cx="869.88" cy="289.66" r="5.92"/><path class="cls-6" d="M928.79 475.36h12v12h-12zM903.32 490.8h12v12h-12z"/><path class="cls-1" d="M945.53 489.4h7v7h-7zM761.85 460.4h7v7h-7zM902.98 556.5h7v7h-7z"/><path class="cls-6" d="M960.39 481.36h7v7h-7z"/><path class="cls-1" d="M973 432.5c3.73 8.8-1.88 19.11-12.53 23s-22.31 0-26-8.83-1.13-16.11 9.52-20 25.28-2.96 29.01 5.83z"/><ellipse class="cls-1" cx="978.98" cy="420.41" rx="12.67" ry="10.77" transform="rotate(-12.77 979.242 420.477)"/><path class="cls-3" d="M970.41 450.32c14.37-5.18 24.18-16.37 23.78-29.06-.11-3.28-2.88-10.65-3-10.89-2.38-4.52-10.36-16.56-24.86-26.83 17.47-5.6 18.25-25.45 18.25-25.45-20.87-1.79-28.43 9.43-31.17 17.88a4.81 4.81 0 0 0-3.67.1c-3.27-8.28-11.52-19.08-32.24-16.15 0 0 2 19.77 19.82 24.41-13.83 11.05-21 23.5-23.14 28.14-.11.25-2.41 7.75-2.31 11 .38 12.23 10.71 22.53 24.55 27.19"/><ellipse class="cls-3" cx="953.58" cy="440.15" rx="22.35" ry="15.75" transform="rotate(-1.33 950.927 438.856)"/><path class="cls-4" d="M975.63 422.73s2-2.68 6.82-2.92M930.71 424s-2.19-2.56-7-2.54M965.44 439.4s.95 7.13-3.75 15.33M942.14 439.4s-1 7.13 3.74 15.33"/><path class="cls-6" d="M715.37 268.25l-2.2 4.92c9.51 4.89 15.86 13.57 15.86 23.49 0 14.42-13.38 26.26-30.47 27.57l-14.26 11.64 3.52-12.23c-14.93-2.83-26.07-13.83-26.07-27 0-13.35 11.45-24.49 26.71-27.12l.62-5.5c-18.52 2.57-32.72 16.19-32.72 32.62 0 13.88 9.93 25.92 24.76 30.8l-2 6.92-4.75 16.53L687.71 340l13-10.6c19.34-2.21 33.71-16.06 33.71-32.78-.01-12.02-7.66-22.62-19.05-28.37z"/><path class="cls-6" d="M714.45 258.74a111.09 111.09 0 0 0-19-7.65s-4.18 18.15-7 47h.23c2.46 0 8 1.23 9.89 2.95-.04-.04 6.36-19.38 15.88-42.3zM684.57 308c0 3.16 2.83 5.72 6.33 5.72s6.34-2.56 6.34-5.72-2.84-5.73-6.34-5.73-6.33 2.53-6.33 5.73z"/><path class="cls-1" d="M787.97 99.44h12v12h-12zM976.45 88.94h12v12h-12z"/><path class="cls-6" d="M768.53 86.99h6.31v6.31h-6.31z"/><path class="cls-1" d="M737.03 114.6h6.31v6.31h-6.31z"/><path class="cls-6" d="M825.8 108.28h6.31v6.31h-6.31z"/><path class="cls-1" d="M780.21 146.22s17.5 14.83 18.47 40.09-6.84 34.48-6.84 34.48l10-1.84 8.28-7.75 2.56-6.1-.68-12.9-.15-13.47-4.08-9.44-7.34-17.68-8.55-5.8z"/><path class="cls-6" d="M815.1 179c-4.19-22.68-15.54-38.46-26.74-37.53v-.06l-15.78 2.91c-11.7 2.16-17.58 21.68-13.36 44.42s16.65 38.87 28.34 36.72l.56-.14 15.78-2.91v-.13c10.56-3.51 15.28-21.23 11.2-43.28zm-50.25 8.7c-3.05-16.53-.2-36.09 8.76-37.74s18.62 15.6 21.67 32.12.2 36.09-8.76 37.74-18.62-15.6-21.67-32.12zm36.32 29.42a11.81 11.81 0 0 1-3.59.16c4.55-8.18 6-21.53 3.33-36.24-2.65-14.37-9-26.59-16-32.73a11.38 11.38 0 0 1 3.35-1.06c7.08-1.31 17.29 11.56 21.21 32.79 3.53 18.96-.23 35.58-8.3 37.08z"/><path class="cls-1" d="M787.36 181.21l-4.77.88a1 1 0 0 1-1.14-.78l-2.37-12.87a1 1 0 0 1 .78-1.14l3.83-.71a1 1 0 0 0 .78-1.13l-.48-2.59a1 1 0 0 0-1.14-.78l-3.82.7a1 1 0 0 1-1.14-.78l-.66-3.57a1 1 0 0 0-1.14-.79l-2.59.48a1 1 0 0 0-.78 1.14l.66 3.57a1 1 0 0 1-.78 1.14l-4.51.83a1 1 0 0 0-.78 1.14l4 21.89a1 1 0 0 0 1.14.78l4.51-.83a1 1 0 0 1 1.13.78l2.56 13.86a1 1 0 0 1-.78 1.13l-3.56.66a1 1 0 0 0-.79 1.14L776 208a1 1 0 0 0 1.14.78l3.56-.66a1 1 0 0 1 1.14.78l.42 2.31a1 1 0 0 0 1.14.78l2.59-.48a1 1 0 0 0 .78-1.13l-.42-2.31a1 1 0 0 1 .78-1.14l4.77-.88a1 1 0 0 0 .78-1.14L788.5 182a1 1 0 0 0-1.14-.79zM775 182.5l-2.38-12.88a1 1 0 0 1 .78-1.13 1 1 0 0 1 1.14.78l2.46 12.87a1 1 0 0 1-.79 1.14 1 1 0 0 1-1.21-.78zm11.57 19.83h-.26a1 1 0 0 1-1.14-.79l-2.56-13.85a1 1 0 0 1 .78-1.14h.27a1 1 0 0 1 1.13.78l2.56 13.86a1 1 0 0 1-.75 1.14z"/><path class="cls-6" d="M684.78 215.15a9.86 9.86 0 0 1-6.49 6.9.37.37 0 0 0 0 .72 9.86 9.86 0 0 1 6.49 6.9.38.38 0 0 0 .73 0 9.83 9.83 0 0 1 6.49-6.9.38.38 0 0 0 0-.72 9.83 9.83 0 0 1-6.49-6.9.38.38 0 0 0-.73 0z"/><path class="cls-1" d="M732.69 204.33a13.12 13.12 0 0 1-8.67 9.22.51.51 0 0 0 0 1 13.14 13.14 0 0 1 8.67 9.22.51.51 0 0 0 1 0 13.15 13.15 0 0 1 8.68-9.22.51.51 0 0 0 0-1 13.13 13.13 0 0 1-8.68-9.22.51.51 0 0 0-1 0zM676.48 159.24l.18-3.46a2.31 2.31 0 0 1 1.68-2.09l12.13-3.38a2.29 2.29 0 0 0 1.66-2.47l-.74-6.64a2.29 2.29 0 0 0-2.07-2l-12.84-1.2a2.3 2.3 0 0 1-2.08-2.51l1.51-16.16a2.29 2.29 0 0 1 1.18-1.8l5-2.74a2.36 2.36 0 0 0 .93-1l10.67-20.46a2.3 2.3 0 0 0-.24-2.5l-13.9-17.45a2.28 2.28 0 0 0-1.8-.86h-21a2.29 2.29 0 0 0-2 1.22l-11.17 21.14a2.29 2.29 0 0 0 .14 2.39l13.18 18.82a2.3 2.3 0 0 0 3.51.31 2.28 2.28 0 0 1 1.47-.67l2-.13a2.3 2.3 0 0 1 2.44 2.14l3.7 55a2.3 2.3 0 0 0 2.34 2.15l19.32-.4a2.3 2.3 0 0 0 2.21-2.69l-1.41-8.25a2.3 2.3 0 0 0-2.26-1.91h-11.45a2.3 2.3 0 0 1-2.29-2.4zm-18.85-55.88l-4.88-6.46a2.28 2.28 0 0 1-.21-2.44l4-7.6a2.31 2.31 0 0 1 2-1.24h12.75a2.29 2.29 0 0 1 1.79.86l5.54 7a2.3 2.3 0 0 1 0 2.87l-4.86 6a2.28 2.28 0 0 1-1.6.85l-12.5 1.06a2.29 2.29 0 0 1-2.03-.9z"/><path class="cls-3" d="M672.1 83.83l-14.82.92a2.28 2.28 0 0 0-1.81 1.07L650 94.48a2.3 2.3 0 0 0 .17 2.68l6.46 7.92a2.29 2.29 0 0 0 1.92.84l14.83-.92a2.3 2.3 0 0 0 1.8-1.08l5.43-8.66a2.29 2.29 0 0 0-.16-2.67L674 84.67a2.28 2.28 0 0 0-1.9-.84z"/><path class="cls-3" d="M676.75 117.15l4.47-.28a2.28 2.28 0 0 0 1.86-1.18L695 94.27a2.3 2.3 0 0 0-.15-2.48L680.36 72a2.27 2.27 0 0 0-2-.94l-28.89 1.8a2.33 2.33 0 0 0-1.87 1.17l-11.93 21.44a2.3 2.3 0 0 0 .15 2.48l14.51 19.78a2.33 2.33 0 0 0 2 .94l4.46-.28a2.3 2.3 0 0 1 2.44 2.15l3.33 53.59a2.3 2.3 0 0 0 2.44 2.15l13.07-.81 14.71-.92a2.3 2.3 0 0 0 2.15-2.43l-.55-8.79a2.29 2.29 0 0 0-2.43-2.15l-12.42.77a2.29 2.29 0 0 1-2.43-2.15l-.3-4.82a2.3 2.3 0 0 1 2.15-2.44l12.41-.77a2.29 2.29 0 0 0 2.15-2.43l-.54-8.79a2.3 2.3 0 0 0-2.44-2.15l-12.41.77a2.3 2.3 0 0 1-2.44-2.15l-1.08-17.44a2.29 2.29 0 0 1 2.15-2.43z"/><path class="cls-1" d="M860.62 157.28s-.06 7.31 6.3 9l5.69-9.92-9.36-7.84zM917.45 107.85s-9.13 35-18.63 61.22l28.25 9.93-6.37-4.42 5-18.18 17-45.4-3.63-4.32z"/><path class="cls-6" d="M880.3 90.1l-7.14 22.51s6.26 9.82 21.46 15.48c2.09-7.89 4.56-16.42 6.6-21.24 0 0-20.66-14.17-20.92-16.75zM941.75 107.88l-8.94 27c17.54 6 23.78 19.23 23.78 19.23L967.36 127s-7.59-12.46-25.61-19.12zM894.62 128.09c-2.53 9.53-4.5 18.14-4.5 18.14 14.77 9.62 35.6 10.12 35.6 10.12l7.09-21.44a56.49 56.49 0 0 0-17.07-2.91 64.8 64.8 0 0 1-21.12-3.91zM868.09 131.11l-3.69 15.71s8.27 18.28 18.89 20.85c0 0 5-16.44 6.83-21.44 0 0-18.78-6.61-22.03-15.12zM940.19 189.38l3-1.4 5.93-16.88s-3.5-9-23.37-14.75c0 0-4.79 16.08-5.46 18.17z"/><path class="cls-3" d="M864.12 145.62a.14.14 0 0 0 0 .09c.21 1.14 4.86 20.77 27.53 24.21 21.82 3.31 29.32-.94 49.93 20.92a.3.3 0 0 0 .49-.09L967.36 127a.24.24 0 0 0-.05-.24c-28.68-29.85-32.68-16.64-56.15-18.14-20.51-1.31-29.44-16.86-30.36-22.06a.26.26 0 0 0-.5 0z"/><path class="cls-3" d="M864.12 145.62l-18.48 61.52s-.9 2.69 4.92 3.4a1.31 1.31 0 0 0 1.41-.88l17.62-51.16M880.3 86.56s1-6.52 7.34-2.58c6.16 3.83-1.11 12.68-1.11 12.68"/><g id="_Group_" data-name="&lt;Group&gt;"><g opacity=".5"><path class="cls-6" d="M766.21 32.47l-9.85 9.85-11 11-11-11-9.85-9.85 10.99-11 9.86 9.86 9.86-9.86 10.99 11zM797.99 21.47l9.85 9.86 9.86-9.86 10.99 11-9.85 9.85-11 11-10.99-11-9.86-9.85 11-11z"/></g><path class="cls-16" d="M755.22 21.47l-9.86 9.86-9.86-9.86-10.99 11 9.85 9.85 11 11 11-11 9.85-9.85-10.99-11zM817.7 21.47l-9.86 9.86-9.85-9.86-11 11 9.86 9.85 10.99 11 11-11 9.85-9.85-10.99-11z"/></g><path class="cls-16" d="M880.18 21.47l-9.86 9.86-9.85-9.86-11 11 9.86 9.86 10.99 10.99 11-10.99 9.86-9.86-11-11z"/><path class="cls-6" d="M915.06 36.11h12v12h-12z"/><path class="cls-1" d="M240.66 75.52h7.19v11.06h-7.19zM186.5 52.58h83.84v6.54H186.5zM241.3 95.36v6.12h-25.75v-6.12h-26.5v7.52h24.63v4.16h28.82v-4.16h24.66v-7.52H241.3z"/><path class="cls-3" d="M216.36 95.37h-28.82a1.73 1.73 0 0 1-1.67-1.77V54a1.72 1.72 0 0 1 1.67-1.77h81.13a1.72 1.72 0 0 1 1.67 1.77v39.6a1.73 1.73 0 0 1-1.67 1.77h-29.35M267.16 95.37v24.26c0 2-1.5 2.3-3.35 2.3H192.4c-1.85 0-3.35-.35-3.35-2.3V95.37"/><path class="cls-5" d="M200.38 52.19V87M203.75 95.37v18.16M252.46 95.37v18.16M255.83 52.19V87M215.55 75.22h25.11v26.62h-25.11zM228.1 86.58v10.91M215.55 82.01h25.11M189.05 111.53h78.11M240.66 85h29.46M185.78 85h29.77"/><path class="cls-1" d="M979.54 684.23l-.42-2.71s-4.66-16.8-16.5-23.14l-3.94 3.82 13.68 16.93.33 4.32c-4.42 2.34-12.73 4.11-19.94 5.3l-.75-32.06-3.86-1-1.47 33.95c-4.27.58-7.28.88-7.28.88s-3-.3-7.28-.88l-1.47-33.95-3.86 1-.78 32.06c-7.22-1.19-15.53-3-20-5.3l.34-4.32 13.67-16.93-3.94-3.82c-11.83 6.34-16.5 23.14-16.5 23.14l-.42 2.71 3.83 1.54-.83 1.78s5.65 4.84 9.54 6.42c0 0 1.47 11.4 9.56 9.24a29.34 29.34 0 0 0 3.79-1.29l2.19 14.34 4.91-5.54-1.31-12.29a9.74 9.74 0 0 0 1.31-1.38h14.37a9 9 0 0 0 1.31 1.38l-1.31 12.29 4.91 5.54 2.19-14.34a28.33 28.33 0 0 0 3.79 1.29c8.14 2.16 9.6-9.21 9.6-9.21 3.88-1.58 9.53-6.42 9.53-6.42l-.82-1.78z"/><path class="cls-6" d="M1000 672.6a12 12 0 0 1-1.83 2.61 13.35 13.35 0 0 0-6.68-1c.9-3.94 1.37-10.24-2.39-15.91a33.13 33.13 0 0 1 10.87-.53v.09-5.17c-9.93-1.12-19.6 2.74-22.84 4.2l-.57-1h-1.47c-6.21 0-16.81 1.3-18.74 1.55a73.39 73.39 0 0 0-16-10.43l-1-.42-1 .42a73.4 73.4 0 0 0-16 10.4c-2.36-.29-12.52-1.52-18.55-1.52h-1.46l-.58 1c-4.87-2.21-24.35-9.86-37.33 2.32-7.43 7-6.73 19.86 2 37.27a5.42 5.42 0 0 0 4.88 3 5.51 5.51 0 0 0 1.2-.13 5.42 5.42 0 0 0 4.32-5.17c.2-5.21 1.3-11.9 5.41-14.2 3.84-2.16 9.71 0 14.27 2.43a49.11 49.11 0 0 0 1.58 9.8 78.48 78.48 0 0 0-3.76 17.78l-.07.76.36.67c.36.66 8.91 16.2 23.46 20.7l2.16.66.88-2.07c1.94-4.55 5.84-11.61 8.42-13 3.55-2 8.73-2.57 9.78-2.67 1 .1 6.23.69 9.79 2.67 2.58 1.43 6.47 8.49 8.41 13l.89 2.07 2.15-.66c14.56-4.5 23.1-20 23.46-20.7l.36-.67-.07-.76a78.77 78.77 0 0 0-3.68-17.57h.09a49.58 49.58 0 0 0 1.64-10c4.56-2.42 10.44-4.59 14.27-2.43a8.38 8.38 0 0 1 3.32 3.84zm-94.61-11.69c3.7.11 8.52.57 12.06 1a78 78 0 0 0-15.78 21.78 46.81 46.81 0 0 1 3.72-22.78zm-33.5 33.15a.45.45 0 0 1-.39.47.44.44 0 0 1-.55-.27 80.2 80.2 0 0 1-4.41-10.45 25.51 25.51 0 0 0 6.13 3.4 41.56 41.56 0 0 0-.78 6.85zm1.88-10.73c-2.8-1.17-7.51-3.77-9.28-8.56-.45-4.7.33-9 3.4-11.9a18.85 18.85 0 0 1 6.53-4c-1.47 5.54-1.71 13 3 18.57a15.49 15.49 0 0 0-3.65 5.89zm13.7-9.1a13.32 13.32 0 0 0-6.67 1c-2.65-2.85-3.73-6.69-3.21-11.44a26.63 26.63 0 0 1 1.4-6 32.89 32.89 0 0 1 10.87.52c-3.75 5.69-3.28 11.98-2.39 15.92zm9.06 2.66a34.94 34.94 0 0 0-4.68-1.79c-.92-3-2.39-10 2.2-15.71a49.84 49.84 0 0 1 5.68 2.08 51.76 51.76 0 0 0-3.2 15.42zm33.16 35.31a20 20 0 0 0-2.53 1.16c-4 2.22-7.8 9.43-9.62 13.3-9.91-4.09-16.51-14.27-18.1-16.91a71.9 71.9 0 0 1 7-24.4c.5.29 1.06.6 1.69.92.72 7 2.35 17.28 5.82 19.54l.63.41h.74a44.58 44.58 0 0 0 14.41-2.6zm0-14.07c-4.48 2.4-10.84 2.94-13.35 3-1-1.72-2.15-6.79-2.92-12.52a65.93 65.93 0 0 0 16.27 3.9zm0-10.61a56.43 56.43 0 0 1-20.9-6.58 76 76 0 0 1 20.9-22.94zm14.52 23.26a38.38 38.38 0 0 0-4.65-.71h-.38a36.85 36.85 0 0 0-4.49.68V693q1.75.09 3.6.09c2 0 4-.08 5.92-.22zm0-23c-1.9.15-3.87.24-5.92.24q-1.85 0-3.6-.09v-33.25c2.07-1.27 3.72-2.14 4.68-2.62 1 .49 2.7 1.38 4.84 2.7zm29.36-26.9a46.77 46.77 0 0 1 3.68 23.1 77.94 77.94 0 0 0-15.94-22.13c3.56-.35 8.5-.85 12.26-.94zm-24.36-2.79a75.8 75.8 0 0 1 20.68 22.66 68.25 68.25 0 0 1-20.68 6.45zm0 34.17a75.63 75.63 0 0 0 16.34-4.13c-.78 6-2 11.33-3 13-3.11-.13-9.2-.84-13.37-3.07zm12 34.38c-1.82-3.88-5.62-11.09-9.61-13.31a19.78 19.78 0 0 0-2.38-1.1v-8.64a44.58 44.58 0 0 0 14.41 2.6h.74l.62-.41c3.54-2.3 5.17-12.88 5.87-19.91l1.43-.71a71.83 71.83 0 0 1 7 24.56c-1.57 2.68-8.15 12.85-18.09 16.95zm25.93-51.57a33.26 33.26 0 0 0-4.69 1.79 51.4 51.4 0 0 0-3.21-15.42 47.56 47.56 0 0 1 5.68-2.09c4.64 5.74 3.15 12.79 2.21 15.75zM14.5 659.23A24.76 24.76 0 0 0 0 652.71v5.17a26.57 26.57 0 0 1 1.38 5.89A15.23 15.23 0 0 1 0 672.6v11.29a27.35 27.35 0 0 1 2.08 10.35 5.53 5.53 0 0 0 5.53 5.31 5.41 5.41 0 0 0 4.87-3c8.75-17.46 9.45-30.35 2.02-37.32zM8 694.26a.45.45 0 0 1-.55.27.44.44 0 0 1-.39-.47 41.51 41.51 0 0 0-.79-6.85 25.32 25.32 0 0 0 6.13-3.4A81.65 81.65 0 0 1 8 694.26zm-2.81-10.93a15.48 15.48 0 0 0-3.68-5.86c4.75-5.56 4.5-13 3-18.58a18.86 18.86 0 0 1 6.54 4c3.07 2.89 3.85 7.2 3.39 11.9-1.73 4.77-6.44 7.37-9.25 8.54z"/><path class="cls-1" d="M1000 801.72l-50.57 2.37.43 9.27 50.14-2.35v-9.29z"/><path class="cls-6" d="M1000 838l-15.12.7-1.58-33.7 16.7-.78v-5l-15.66.74-.27-5.89 15.93-.74v-5l-2.27.11a16.26 16.26 0 0 0 2.27-2v-11.9a20.43 20.43 0 0 0-4.79-3.72c-5.16-3-8.94-2.22-11.2-1-3.8 2-6.06 6.6-7.4 11.06-1.74-4.31-4.42-8.65-8.4-10.32-2.36-1-6.2-1.45-11.05 2-6.8 4.9-7.06 9.29-6.08 12.11a11.1 11.1 0 0 0 5.24 5.65l-13.75.64.74 15.88 3.74-.18 1.81 38.67L1000 843zm-51.93-36.32l-.27-5.89 22.46-1 .28 5.89zm5.55 38.49l-1.62-33.7 20-.94 1.58 33.67zm2.18-57.08c-.8-2.31 2.34-5 4.28-6.4a8 8 0 0 1 4.58-1.84 3.87 3.87 0 0 1 1.61.34c4 1.7 6.62 9.42 7.75 14.28-9.72-.16-17.11-3.24-18.22-6.41zm30.58-8.84a3.91 3.91 0 0 1 2-.51 8.65 8.65 0 0 1 4.3 1.42c2.07 1.21 5.44 3.6 4.86 6-.81 3.26-7.87 7-17.54 8 .66-4.94 2.5-12.86 6.38-14.94z"/><path class="cls-1" d="M0 811.01l6.45-.31-.43-9.26-6.02.28v9.29z"/><path class="cls-6" d="M12.37 803.64l-.75-15.87-11.62.54v5.01l6.86-.32.28 5.88-7.14.34v5l3.64-.17 1.58 33.67-5.22.25v5l10.44-.49-1.81-38.66 3.74-.18zM0 774.54v11.92a9.32 9.32 0 0 0 2.39-4.16c.51-2.04.31-4.82-2.39-7.76z"/><path class="cls-1" transform="rotate(135 885.991 905.773)" d="M878.33 900.66h15.33v10.22h-15.33z"/><path class="cls-1" d="M888.48 930.39l56.13 57.49 30.27 6.78-74.09-74.09-12.31 9.82z"/><path class="cls-3" d="M976.35 996.13l-6.33-29.82-58.73-58.73-11.74 11.75-11.75 11.74 58.73 58.73 29.82 6.33z"/><path class="cls-3" transform="rotate(135 894.58 914.356)" d="M867.11 907.97h54.94v12.78h-54.94z"/><path class="cls-3" d="M865.16 890.16h30.14v14.06h-30.14a5.64 5.64 0 0 1-5.64-5.64v-2.78a5.64 5.64 0 0 1 5.64-5.64z" transform="rotate(45 877.41 897.195)"/><path class="cls-1" d="M318.97 1000H329l1.83-15.52-11.31 10.75-.55 4.77zM339.51 910.53l-11.3 10.76-1.78 15.15-15.15-1.78-13.08 8.51 27.07 3.17 9.9 1.17 1.16-9.9 3.18-27.08zM330.83 984.48l1.16-9.9 3.18-27.07-11.3 10.75-1.78 15.15-15.15-1.78-13.08 8.51 27.07 3.18 9.9 1.16zM291.52 1000l2.34-19.86-11.31 10.75-1.07 9.11h10.04z"/><path class="cls-6" d="M256.56 1000l2.51-21.43 32 3.76-1.88 16-.19 1.67h5l.13-1.08 1.88-16 16 1.88 16 1.88-1.52 13.32h5l1.5-12.75 4.34-37 4.92-41.94-41.94-4.92-4.34 37-4.34 37-37-4.34-3.17 27zm48.17-91l32 3.76-3.75 32-16-1.88L301 941zm-4.34 37l16 1.88 16 1.88-3.76 32-16-1.87-16-1.88z"/><path class="cls-1" d="M291.57 0h-10.04l-.76 6.42-15.15-1.78-13.08 8.5 27.07 3.18 9.9 1.17 1.17-9.91.89-7.58zM319.01 0l-1.26 10.76-15.16-1.78-13.08 8.51 27.07 3.17 9.91 1.17 1.16-9.9L329.05 0h-10.04z"/><path class="cls-6" d="M326.53 0l-2.24 19.05-32-3.76L294.08 0h-5.03l-1.73 14.71-32-3.76L256.6 0h-5.03l-1.8 15.34 36.97 4.34 41.94 4.92L331.56 0h-5.03z"/><path class="cls-1" d="M394.4 1000h3.23l7.65-6.16-7.06 6.16h7.17l33.78-25.6 9.11 12.6 12.83-7.13 10.74-2.33-5.7-12.39-.85-12.66-15 .21-.59-68.2s-10.24-26.65-65.32-36c.02.01 73.46 65.38 10.01 151.5zm51.48-36.22l9.36 4.62 4.43-9 10.48 16.32-14.91-7.35-4.91 10-6.25-10.91zm-4.54-5.91l2.12-18.53-.69 13.49-1.43 5z"/><path class="cls-6" d="M475.63 975.8l-4.52-6.8-12.28-82a5.5 5.5 0 0 0-5.24-4.86l-3.75-.17a5.52 5.52 0 0 0-5.77 5.27l-4.08 70-1.72.16a2.86 2.86 0 0 0-2.16 4.38l.92 1.46-42.51 36.76h7.65l28-24.24L440 989.1l-19.69 10.9h10.31l34.69-19.21 8.12-.54a2.87 2.87 0 0 0 2.2-4.45zm-26.57-88.26a.51.51 0 0 1 .17-.37.58.58 0 0 1 .38-.14l3.76.16a.56.56 0 0 1 .51.54l8.41 56.13-16.53.38zm-3.59 61.71l17.56-.4 1.56 10.4-2.67-4L445 956.8zm-1.08 37.41L434 972.48l5.72-4.94 9 14.34 4.81-.32zm7-10l-9.22-14.62 17.21-1.59 10 15z"/><path class="cls-1" d="M398.65 0l-12.31 10.75-1.08 4.88L405.89 0h-7.24zM398.1 0h-3.42a180.36 180.36 0 0 1-5.61 7.27z"/><path class="cls-6" d="M421 0l-30.74 17a.53.53 0 0 1-.67-.12L387.17 14a.48.48 0 0 1-.12-.38.58.58 0 0 1 .23-.4L402.6 0H395l-10.9 9.42a5.53 5.53 0 0 0-.72 7.82l2.42 2.88a5.53 5.53 0 0 0 4.24 2 5.43 5.43 0 0 0 2.75-.74L431.3 0z"/><path class="cls-3" d="M58.13 866.06l5.34 20.55a5 5 0 0 0 4.53 3.73l21.2 1.27a5 5 0 0 1 2.39 9.19l-17.9 11.43a5 5 0 0 0-2.14 5.47l5.34 20.55a5 5 0 0 1-8 5.11l-16.4-13.49a5 5 0 0 0-5.85-.35L28.73 941a5 5 0 0 1-7.33-6l7.76-19.77a5 5 0 0 0-1.48-5.68L11.28 896a5 5 0 0 1 3.47-8.84L36 888.42a5 5 0 0 0 4.94-3.16l7.76-19.77a5 5 0 0 1 9.43.57z"/><path class="cls-4" d="M42.86 900.47l-.58 9.6M59.7 901.48l-.58 9.6"/><path class="cls-17" d="M57.17 924.26l9.66 8.52M70.93 905.76l11.19-6.39"/><path class="cls-1" d="M676.63 1000h2.1a21.74 21.74 0 0 0 1.12-8.17 11.68 11.68 0 0 1-3.22 8.17zM671.94 972.82l-12.71-13.59 9.69.22 5.18-7.1-14.05 2.36-2.4 2.83-2.06-2.2s-8 .73-11.33 4.86a61.06 61.06 0 0 1 27.68 12.62zM623.27 1000h23.89c-17-9.28-13.31-31.29-13.31-31.29-4.74 5.06-12.59 23.12-11.86 25.95a53.39 53.39 0 0 0 1.28 5.34zM644.26 956l-10.33.83-2.5 5.5 11.1-2.13 1.73-4.2z"/><path class="cls-6" d="M702.12 953.32a5.82 5.82 0 0 0-6.29-5.31L672 950a29 29 0 0 0 5.63-14.61l.15-2.36-2.34-.28c-7.78-1-14.1.62-18.79 4.67a21.52 21.52 0 0 0-5.39 7.32 21.26 21.26 0 0 0-5.39-7.32c-4.69-4-11-5.62-18.78-4.67l-2.35.28.16 2.36c0 .46.82 11.31 8.7 17.75l.11.09-26.71 2.26a5.83 5.83 0 0 0 .48 11.63 3.91 3.91 0 0 0 .49 0l25.84-2.12a73.58 73.58 0 0 0-12.19 18.27c-.18.4-2.12 6.42-2.12 9.44a22 22 0 0 0 1.27 7.32h5.38a17.15 17.15 0 0 1-1.65-7.32c0-1.78 1.33-6.35 1.7-7.43 2.06-4.49 9.74-19.31 24.72-27.71h.08c2.3 2.7 8 11.09 9.7 29.63a2 2 0 0 0 2 1.81h.19a2 2 0 0 0 1.81-2.17c-1.06-11.43-3.56-19.28-6-24.49a66.16 66.16 0 0 1 17.73 23 36.88 36.88 0 0 1 1.71 7.43 17.15 17.15 0 0 1-1.65 7.32h5.37a21.72 21.72 0 0 0 1.28-7.32c0-3-1.88-8.84-2.12-9.42a72.94 72.94 0 0 0-14.88-21.06l30.71-2.59a5.83 5.83 0 0 0 5.32-6.29zm-62.65 6.17l-31.91 2.62a.82.82 0 1 1-.14-1.64l34.42-2.9c-.84.63-1.6 1.27-2.37 1.92zm-2.65-10.19c-4.2-3.42-5.88-8.72-6.52-11.79 5.11-.2 9.23 1 12.31 3.68 4 3.43 5.41 8.55 5.91 11.5-4.74.21-8.66-.91-11.7-3.39zm17.23 3.38c.5-2.93 1.9-8 5.9-11.46 3.08-2.66 7.21-3.91 12.35-3.71-.64 3.06-2.3 8.33-6.51 11.77-3.04 2.49-6.97 3.63-11.74 3.4zm42.9 1.66a.82.82 0 0 1-.56.29l-35.57 3-.55-.42a21 21 0 0 0 4.78-1.59l31.2-2.63a.82.82 0 0 1 .89.75.83.83 0 0 1-.14.6z"/><path class="cls-1" d="M676.77 0c-2.17 2.3-5.87 4.2-12.18 4.19-7.59-.13-13.33-1.74-17.7-4.19h-23.67c2.22 7.06 8.69 18.22 30 16.5 17.26-1.38 23.38-9.89 25.51-16.5z"/><path class="cls-6" d="M676.44.15C672.66 8.23 662.81 14 651.29 14S629.93 8.23 626.15.15h-5.38C624.63 11 636.85 19 651.29 19S678 11 681.81.15z"/><path class="cls-1" d="M975.31 511.92l1.32 1.83-1.72 5.3s-17.82-.5-26.37 5.61l-3.6-4.15 4.73-5.65 16.33-4.53zm-34.75 62.32c-5.36-6.72-6-28 3.63-43.19l-6.72 6-6.32 20.52-2.07 11.14 5.38 10.06 5.87 5.08 14.38.83 6.11-2.77.94-1.82-1.47-.65s-14.37 1.56-19.73-5.2z"/><path class="cls-6" d="M994.31 557.16a2.12 2.12 0 1 0-.78 4.16l5.43 1a2.14 2.14 0 0 0 1-.08v-4l-.26-.08z"/><path class="cls-6" d="M1000 573.56a11 11 0 0 0-7.39-5.25l-11.52-2.14a10 10 0 0 0-2-.18 11.16 11.16 0 0 0-8.51 4c-8 9.52-23.41 14.69-31.65 10.63-5.69-2.8-6.58-9.84-6.32-15.26.34-7.19 2.91-16.12 7-24.51 6.07-12.36 14.59-19.58 23.38-19.82h.14c.61 0 11.79.22 16.47 1.09l20.4 3.78v-5.09l-19.41-3.61-.35-.06c-.46-2.86-1.81-7.46-5.68-8.32-1.74-.39-17.18-3.55-26.14 3.82-4.15 3.41-6.21 8.44-6.15 14.94a55.51 55.51 0 0 0-7.07 11.07c-4.42 9-7.17 18.64-7.54 26.48-.48 9.91 2.67 16.82 9.1 20 10.42 5.13 28-.43 37.68-11.89a6.08 6.08 0 0 1 5.73-2.14l11.52 2.15a6.08 6.08 0 0 1 4.58 4 39.26 39.26 0 0 0 3.73 7.82zm-48.4-57.06c7.25-6 21.28-2.93 21.87-2.8s1.12 1.31 1.53 2.85c-5.31-.41-11.39-.51-11.93-.51h-.17a25 25 0 0 0-14.9 5.85 11.25 11.25 0 0 1 3.6-5.39z"/><path class="cls-6" d="M956.7 555.56l5.49 1a.86.86 0 0 0 1-.69l1.23-6.61a.88.88 0 0 1 1-.7l6.62 1.23a.86.86 0 0 0 1-.69l1-5.49a.86.86 0 0 0-.69-1l-6.62-1.23a.86.86 0 0 1-.69-1l1.23-6.62a.86.86 0 0 0-.69-1l-5.5-1a.86.86 0 0 0-1 .69l-1.19 6.55a.86.86 0 0 1-1 .69l-6.61-1.23a.86.86 0 0 0-1 .69l-1 5.49a.87.87 0 0 0 .7 1l6.61 1.24a.87.87 0 0 1 .7 1l-1.29 6.67a.88.88 0 0 0 .7 1.01zM978.08 554.14a2.12 2.12 0 0 0-.77 4.16l5.43 1a2.12 2.12 0 0 0 .77-4.16z"/><path class="cls-1" d="M19.17 529l9.5 3.56 9.85 10 3.37-3.46L41 533l-2.11-3.59-9.76-5.62L19 519.63l-4.06 2.13v4.68zm20.21 19.82c3.5 17.61-4.73 37.27-12.15 41.61s-20.3-2.21-20.3-2.21l-1.6.08.21 2 4.71 4.78L24 599.46l7.31-2.62 8.64-7.45L42 578.25l1.5-21.42zm-15.05 7.06a3.81 3.81 0 1 0 4.45-3.05 3.82 3.82 0 0 0-4.45 3zM10.06 557A3.81 3.81 0 1 0 7 552.6a3.8 3.8 0 0 0 3.06 4.4z"/><path class="cls-6" d="M1.43 560.64A2.12 2.12 0 0 0 0 558.25v4a2.13 2.13 0 0 0 1.43-1.61zM14.06 562.87a3.81 3.81 0 1 0 4.44-3 3.82 3.82 0 0 0-4.44 3z"/><path class="cls-6" d="M45.32 559.15a56.28 56.28 0 0 0-2.6-12.87c2.39-6 2.27-11.47-.38-16.15-5.71-10.1-21.25-12.71-23-13-3.93-.6-6.84 3.21-8.29 5.71l-.35-.07L0 520.81v5.09l9.77 1.82c4.53.84 14.78 4.52 15.71 4.9l.21.08c8.08 3.38 13.43 13.18 14.65 26.9 1.56 17.49-3.48 36.19-14.62 37.18-9 .81-20.57-9.07-24.73-21.13a11.12 11.12 0 0 0-1-2.09v11.54c6 9.78 16 16.72 24.73 16.72.48 0 1 0 1.43-.06 14.85-1.32 20.93-22.94 19.17-42.61zm-5.94-20.26a25 25 0 0 0-11.75-10.79l-.17-.08c-.56-.24-6.23-2.3-11.31-3.81.94-1.29 1.93-2.19 2.44-2.11s14.78 2.32 19.4 10.49a11.12 11.12 0 0 1 1.39 6.3z"/><path class="cls-6" d="M20.33 550a3.81 3.81 0 1 0-3-4.45 3.82 3.82 0 0 0 3 4.45z"/><path class="cls-1" d="M18.31 83.65h-10l.97 10.14 10.61 5.66 8.9 4.61h10.2l1.28-14.37H18.31v-6.04zM35.66 55.75l-1.8-7.7h-9.5l.82 7.08 10.48.62zM103.82 83.65v6.04H81.85l1.28 14.37h10.21l8.89-4.61 10.61-5.66.97-10.14h-9.99zM97.76 48.05h-9.5l-1.79 7.7 10.48-.62.81-7.08z"/><path class="cls-3" d="M30.31 56.42H35a5.28 5.28 0 0 1 5.28 5.28v37.08a5.28 5.28 0 0 1-5.28 5.28h-4.69a12 12 0 0 1-12-12V68.42a12 12 0 0 1 12-12zM18.31 97.16a10 10 0 0 1-10-10V73.31a10 10 0 0 1 10-10"/><path class="cls-3" d="M93.85 56.42h4.69a5.28 5.28 0 0 1 5.28 5.28v37.08a5.28 5.28 0 0 1-5.28 5.28h-4.69a12 12 0 0 1-12-12V68.42a12 12 0 0 1 12-12z" transform="rotate(-180 92.835 80.24)"/><path class="cls-3" d="M103.82 97.16a10 10 0 0 0 10-10V73.31a10 10 0 0 0-10-10M96.22 56.42S107.88 9.94 67.07 9.94h-12c-40.82 0-29.15 46.48-29.15 46.48"/><path class="cls-3" d="M86.83 56.42S97.37 19 65.09 19H57c-32.25 0-21.71 37.42-21.71 37.42"/><path class="cls-6" d="M69.4 60.93l-11.7 2.53v9.27h-.06V84a9.56 9.56 0 0 0-4.42 2.27c-2.94 2.55-4.19 6.1-2.79 7.94s4.91 1.29 7.84-1.21c2.17-1.89 3.41-4.32 3.35-6.2V72.61l7.77-1.67z"/><path class="cls-18" d="M945.88 235.48l11.28 13.21M979.81 265.91l11.27 12.22"/><path class="cls-1" d="M968.48 278.96v18.55l-20.54-20.88 7.11-8.89 13.43 11.22zM968.43 235.42v-18.54l20.55 20.88-7.11 8.88-13.44-11.22z"/><path class="cls-3" d="M945.88 276.74l22.6 22.6 22.61-22.6v-39.26l-22.61-22.6-22.6 22.6v39.26z"/><path class="cls-3" d="M957.16 266.95l11.32 11.33 11.33-11.33v-19.68l-11.33-11.33-11.32 11.33v19.68z"/></g><g id="Layer_2-2" data-name="Layer 2"><ellipse class="cls-3" cx="145.4" cy="528.9" rx="13.72" ry="42.41"/><ellipse class="cls-3" cx="145.4" cy="528.9" rx="44.75" ry="11.49" transform="rotate(-26.68 145.419 528.93)"/><ellipse class="cls-3" cx="145.4" cy="528.9" rx="11.49" ry="44.75" transform="rotate(-63.32 145.386 528.888)"/><circle class="cls-6" cx="154.13" cy="494.8" r="5.29"/><circle class="cls-6" cx="118.38" cy="551.35" r="7.48"/><path class="cls-1" transform="rotate(-2.68 448.493 100.102)" d="M419.8 95.29h56.65v9.28H419.8z"/><path class="cls-3" transform="rotate(-2.68 449.221 114.662)" d="M420.49 95.27h56.65v38.71h-56.65z"/><path class="cls-3" transform="rotate(-2.68 448.091 89.827)" d="M415.59 84.41h64.13V95.3h-64.13z"/><path class="cls-3" d="M447.4 84.41s1.6-27.81 16.74-18.9c14.92 8.75.15 18.11-16.74 18.9zM447.24 84.42s-4.14-27.55-18.43-17.26c-14.04 10.11 1.54 18.05 18.43 17.26z"/><path class="cls-6" transform="rotate(-2.68 447.878 89.822)" d="M440.58 84.41h13.82V95.3h-13.82z"/><path class="cls-6" transform="rotate(-2.68 449.008 114.657)" d="M443.03 95.28h11.26v38.71h-11.26z"/><path class="cls-1" d="M780.34 553.93s.91 14.94-18.64 14.92c-44.62-.77-37.59-43.19-37.59-43.19-5.8 6.19-15.39 28.27-14.49 31.73s3 29.34 38.22 26.51 32.5-29.97 32.5-29.97z"/><path class="cls-1" d="M720.27 530.69l15.54-16.62-11.85.27-6.32-8.68 17.17 2.89 2.94 3.45 2.51-2.68s9.78.89 13.85 5.94a74.55 74.55 0 0 0-33.84 15.43zM754.11 510.12l12.63 1.02 3.06 6.72-13.57-2.6-2.12-5.14z"/><path class="cls-3" d="M729 506.62l-38.2-3.22a4.05 4.05 0 0 0-4.39 3.71 4.06 4.06 0 0 0 3.7 4.39l44.68 3.76M759.11 517.39l39.61 3.25a4.06 4.06 0 0 0 4.39-3.71 4.06 4.06 0 0 0-3.7-4.39l-44.16-3.71"/><path class="cls-3" d="M712 544.72c2.46-5.39 12.24-24.54 31.56-35.39a4 4 0 0 1 3.89 0c19.33 10.85 29.1 30 31.56 35.39.11.23 2.31 7.17 2.31 10.24 0 16-16 28.94-35.81 28.94s-35.82-13-35.82-28.94c.01-3.07 2.22-9.96 2.31-10.24z"/><path class="cls-3" d="M745.52 508.83s-.67-27.57-29.19-24.09c0 0 1.83 27.77 29.19 24.09zM745.52 508.83s.66-27.57 29.18-24.09c0 0-1.82 27.77-29.18 24.09z"/><path class="cls-19" d="M745.52 508.83s-11.15 9-13.93 39.13"/><path class="cls-1" d="M531.97 382.48l-13.76-1.45-.54 5.14-81.22-8.56-.7 6.63 82.05 8.65.35-3.32 12.93 1.37.89-8.46z"/><path class="cls-1" transform="rotate(-83.99 429.052 375.915)" d="M424.84 369h8.5v13.83h-8.5z"/><path class="cls-1" transform="rotate(-83.99 460.39 356.978)" d="M455.44 351.99h9.97v9.97h-9.97z"/><path class="cls-1" transform="rotate(-83.99 498.381 360.984)" d="M493.43 355.99h9.97v9.97h-9.97z"/><path class="cls-1" transform="rotate(-83.99 482.772 326.53)" d="M478.14 323.42h9.33v6.2h-9.33z"/><rect class="cls-3" x="436.25" y="332.44" width="83.5" height="79.49" rx="6.69" ry="6.69" transform="rotate(6.01 478.38 372.492)"/><path class="cls-3" d="M435.46 377.51l83.04 8.75M433.64 394.75l83.04 8.75M476.98 381.88l-1.82 17.24M498.61 384.16l-1.82 17.24M455.35 379.6l-1.82 17.24"/><circle class="cls-3" cx="460.43" cy="356.97" r="12.98"/><circle class="cls-3" cx="498.35" cy="360.97" r="12.98"/><path class="cls-3" d="M519.43 358.66H528a4.41 4.41 0 0 1 4.41 4.41v29.35a4.41 4.41 0 0 1-4.41 4.41h-8.59v-38.17z" transform="rotate(6.01 526.333 378.093)"/><path class="cls-3" d="M427.87 348.55h8.59v38.17h-8.59a4.41 4.41 0 0 1-4.41-4.41V353a4.41 4.41 0 0 1 4.41-4.45z" transform="rotate(6.01 430.291 367.949)"/><path class="cls-3" d="M472.75 320.53h20.09a4.54 4.54 0 0 1 4.54 4.54v7.63h-29.16v-7.63a4.54 4.54 0 0 1 4.54-4.54z" transform="rotate(6.01 483.148 326.875)"/><path class="cls-3" d="M480 308.43h8.23a4.54 4.54 0 0 1 4.54 4.54v7.63h-17.3V313a4.54 4.54 0 0 1 4.53-4.57z" transform="rotate(6.01 484.423 314.774)"/><path class="cls-6" d="M482.36 313.55h2.91a1.65 1.65 0 0 1 1.65 1.65v5.29h-6.2v-5.29a1.65 1.65 0 0 1 1.64-1.65z" transform="rotate(6.01 484.172 317.27)"/><path class="cls-6" transform="rotate(6.01 488.718 327.442)" d="M485.88 321.02h5.02v12.26h-5.02z"/><path class="cls-6" transform="rotate(6.01 526.067 380.303)" d="M519.19 374.98h13v10h-13z"/><path class="cls-6" transform="rotate(6.01 430.025 370.16)" d="M423.23 364.87h13v10h-13z"/><path class="cls-20" d="M461.79 344.07l-2.72 25.81M466.05 346.37l-2.33 22.15M457.01 345.42l-2.34 22.14M499.78 348.07l-2.72 25.81M504.04 350.37l-2.33 22.15M495 349.42l-2.34 22.15"/><path class="cls-6" d="M623.75 133.76h7.8v7.8h-7.8z"/><path class="cls-1" d="M552.53 162.44h12v12h-12zM631.96 45.95h12v12h-12z"/><path class="cls-6" d="M496.19 180.53h12v12h-12z"/><path class="cls-1" d="M504.99 106.62h12v12h-12zM536.35 35.82h6.31v6.31h-6.31zM705.49 75.02h6.31v6.31h-6.31zM536.35 192.53h6.31v6.31h-6.31zM723.45 160.95h6.31v6.31h-6.31zM888.02 188.83h6.31v6.31h-6.31zM642.9 157.13h6.31v6.31h-6.31zM489.51 165.29h6.31v6.31h-6.31zM548.9 17.46h6.31v6.31h-6.31zM610.19 32.01h6.31v6.31h-6.31zM518.5 93.32h6.31v6.31h-6.31z"/><path class="cls-6" d="M492.18 25.46a13.13 13.13 0 0 1-8.68 9.22.51.51 0 0 0 0 1 13.13 13.13 0 0 1 8.68 9.22.5.5 0 0 0 1 0 13.13 13.13 0 0 1 8.68-9.22.51.51 0 0 0 0-1 13.13 13.13 0 0 1-8.68-9.22.5.5 0 0 0-1 0zM531.48 420.29a13.13 13.13 0 0 1-8.68 9.22.51.51 0 0 0 0 1 13.15 13.15 0 0 1 8.68 9.22.5.5 0 0 0 1 0 13.15 13.15 0 0 1 8.68-9.22.51.51 0 0 0 0-1 13.13 13.13 0 0 1-8.68-9.22.5.5 0 0 0-1 0zM823.52 307.63a13.15 13.15 0 0 1-8.68 9.23.51.51 0 0 0 0 1 13.13 13.13 0 0 1 8.68 9.22.5.5 0 0 0 1 0 13.13 13.13 0 0 1 8.68-9.22.51.51 0 0 0 0-1 13.15 13.15 0 0 1-8.68-9.23.51.51 0 0 0-1 0zM927.36 321a13.13 13.13 0 0 1-8.68 9.22.51.51 0 0 0 0 1 13.15 13.15 0 0 1 8.68 9.22.5.5 0 0 0 1 0 13.15 13.15 0 0 1 8.68-9.22.51.51 0 0 0 0-1 13.13 13.13 0 0 1-8.68-9.22.5.5 0 0 0-1 0zM840.48 459.81a13.13 13.13 0 0 1-8.68 9.19.51.51 0 0 0 0 1 13.15 13.15 0 0 1 8.68 9.22.5.5 0 0 0 1 0 13.15 13.15 0 0 1 8.68-9.22.51.51 0 0 0 0-1 13.13 13.13 0 0 1-8.68-9.22.5.5 0 0 0-1 .03zM957.72 886.4a13.13 13.13 0 0 1-8.68 9.22.51.51 0 0 0 0 1 13.15 13.15 0 0 1 8.68 9.22.51.51 0 0 0 1 0 13.15 13.15 0 0 1 8.68-9.22.51.51 0 0 0 0-1 13.13 13.13 0 0 1-8.68-9.22.51.51 0 0 0-1 0zM634.49 774.92a13.15 13.15 0 0 1-8.68 9.22.51.51 0 0 0 0 1 13.13 13.13 0 0 1 8.68 9.22.51.51 0 0 0 1 0 13.12 13.12 0 0 1 8.67-9.22.51.51 0 0 0 0-1 13.14 13.14 0 0 1-8.67-9.22.51.51 0 0 0-1 0zM353.69 371.16a13.13 13.13 0 0 1-8.68 9.22.51.51 0 0 0 0 1 13.15 13.15 0 0 1 8.68 9.22.51.51 0 0 0 1 0 13.15 13.15 0 0 1 8.68-9.22.51.51 0 0 0 0-1 13.13 13.13 0 0 1-8.68-9.22.51.51 0 0 0-1 0zM233.29 501.55a13.13 13.13 0 0 1-8.68 9.22.51.51 0 0 0 0 1 13.15 13.15 0 0 1 8.68 9.22.5.5 0 0 0 1 0 13.15 13.15 0 0 1 8.68-9.22.51.51 0 0 0 0-1 13.13 13.13 0 0 1-8.68-9.22.5.5 0 0 0-1 0zM952.54 64.07a13.13 13.13 0 0 1-8.68 9.22.51.51 0 0 0 0 1 13.15 13.15 0 0 1 8.68 9.22.51.51 0 0 0 1 0 13.12 13.12 0 0 1 8.67-9.22.51.51 0 0 0 0-1 13.1 13.1 0 0 1-8.67-9.22.51.51 0 0 0-1 0zM441.25 180.9a13.15 13.15 0 0 1-8.68 9.22.51.51 0 0 0 0 1 13.13 13.13 0 0 1 8.68 9.22.51.51 0 0 0 1 0 13.1 13.1 0 0 1 8.67-9.22.51.51 0 0 0 0-1 13.12 13.12 0 0 1-8.67-9.22.51.51 0 0 0-1 0z"/><path class="cls-1" d="M605 321.78a13.13 13.13 0 0 1-8.68 9.22.51.51 0 0 0 0 1 13.15 13.15 0 0 1 8.68 9.2.51.51 0 0 0 1 0 13.12 13.12 0 0 1 8.6-9.2.51.51 0 0 0 0-1 13.1 13.1 0 0 1-8.67-9.22.51.51 0 0 0-.93 0zM792.14 527.05a13.1 13.1 0 0 1-8.67 9.22.51.51 0 0 0 0 1 13.1 13.1 0 0 1 8.67 9.22.51.51 0 0 0 1 0 13.13 13.13 0 0 1 8.68-9.22.52.52 0 0 0 0-1 13.13 13.13 0 0 1-8.68-9.22.51.51 0 0 0-1 0zM276.27 487.5a9.36 9.36 0 0 1-6.18 6.56.37.37 0 0 0 0 .7 9.36 9.36 0 0 1 6.18 6.56.36.36 0 0 0 .69 0 9.36 9.36 0 0 1 6.18-6.56.37.37 0 0 0 0-.7 9.36 9.36 0 0 1-6.14-6.56.36.36 0 0 0-.73 0z"/><path class="cls-21" d="M286.17 419.37l4.73 46.71M306.2 419.25l2.99 47.91M321.27 414.87l5.1 44.75M339.6 418.94l2.11 44.96M267.33 427.29l96.22 28.75"/><path class="cls-1" d="M288.53 518.47h6.31v6.31h-6.31zM505.53 466.36h6.31v6.31h-6.31zM237.39 452.89h6.31v6.31h-6.31zM203.41 473.97h6.31v6.31h-6.31zM153.25 32.01h6.31v6.31h-6.31zM903.32 556.84h6.31v6.31h-6.31zM880.5 621.15h6.31v6.31h-6.31zM457 152h7.65v7.65H457zM435.93 223.35h7.65V231h-7.65zM820.18 238.26h7.65v7.65h-7.65z"/><path class="cls-6" d="M280.78 528.89h6.31v6.31h-6.31zM545.75 667.15h6.31v6.31h-6.31zM743.32 643.97h6.31v6.31h-6.31zM637.86 727.72h6.31v6.31h-6.31zM870.84 633.62h6.31v6.31h-6.31zM794.69 484.08H801v6.31h-6.31zM578.9 621.15h6.31v6.31h-6.31zM463.73 436.92h6.31v6.31h-6.31zM372.6 470.81h6.31v6.31h-6.31zM402.3 431.77h6.31v6.31h-6.31zM888.73 469.52h6.31v6.31h-6.31zM878.47 384.18h6.31v6.31h-6.31zM890.05 521.03h6.31v6.31h-6.31z"/><path class="cls-1" d="M517.64 548c-.6-12-9.49-19.57-9.49-19.57 8.08 19.62.74 35-8.15 42s-20.51 20.24-20.51 20.24 2.81-2.89 14.9-10.45S518.23 560 517.64 548z"/><path class="cls-1" d="M494.39 566.19s9.09-8.69 4.22-20.36-12.19-2.83-12.19-2.83 14.77 7.34 7.97 23.19z"/><path class="cls-6" d="M449.92 550.18a8.64 8.64 0 0 1-5.7 6.06.33.33 0 0 0 0 .63 8.64 8.64 0 0 1 5.7 6.06.33.33 0 0 0 .64 0 8.64 8.64 0 0 1 5.7-6.06.33.33 0 0 0 0-.63 8.64 8.64 0 0 1-5.7-6.06.33.33 0 0 0-.64 0z"/><path class="cls-1" d="M516.94 493.22a18.61 18.61 0 0 1-12.3 13.07.72.72 0 0 0 0 1.37 18.63 18.63 0 0 1 12.3 13.08.73.73 0 0 0 1.39 0 18.63 18.63 0 0 1 12.3-13.08.72.72 0 0 0 0-1.37 18.61 18.61 0 0 1-12.3-13.07.73.73 0 0 0-1.39 0z"/><path class="cls-4" d="M482.3 572.38a25.17 25.17 0 0 1 10.17-48.2c13.9 0 25.17 6.92 25.17 27S492.47 580 482.3 587.85s-24.83 51.33-26.5 55.83-8.66 5.5-8.83-2.66 20.17-48.34 24-57.67a17.45 17.45 0 0 1 12.5-10.67c8.67-2.16 15.17-9.66 16.5-17.16s-2.67-12.17-6.83-13.5-9.84 1.16-10.84 7.33 4 8.5 7.5 8.83"/><path class="cls-1" d="M464.89 521.26h4v4h-4zM454.33 509.71h7.81v7.81h-7.81zM516.27 574.02h2.38v2.38h-2.38zM501.38 584.82h3.58v3.58h-3.58zM529.91 548.02h6.11v6.11h-6.11z"/><path class="cls-6" d="M535.25 558.52H546v10.75h-10.75z"/><path class="cls-1" d="M638.72 458.29l-.76.89a2.87 2.87 0 0 0 .76-.89zM649.2 399.43l-4.5-.59s4.57 4.72 2.09 16.61c-2.22 10.61-1.08 24.2-17.58 29.25l-1.42.16-9.63-1.08-14.38-4.49-5.78-2.78-3.5 1.54-1 2.47s1.59 6.89 26.65 10.2c18.66 2.46 19.41 5.95 18.58 7.57l5.54-6.53-1.33-6-1.74-1.34 4.57-4.08 6.2-8.66 2.32-17.68 1.07-8.1zM608.92 391.06l-6.97 4.27 4.71 12.84 2.26-17.11zM622.14 381.17c-2.61 19.84 5.63 17.57 5.63 17.57l-.52-9.4 2.36-18.14s2-11.93-9.11-11.19c0-.01 4.26 1.32 1.64 21.16z"/><path class="cls-4" d="M606.46 409.74l5.44-41.23c.68-5.16 4.62-9.12 9.79-8.43 5.92.78 8.62 6 7.84 11.95l-3.14 23.82a.51.51 0 0 0 .74.52c2-1 6.37-2.76 11.57 2.28a.52.52 0 0 0 .59.09c1.62-.86 8.8-2.08 13.86 4.53 3.32 4.33 1.61 10.42 1 15s1.4 30.44-30.91 26.17c-20.43-2.7-29.2-8.89-29.94-20-.57-8.59-2.67-31.14 14.67-31.29"/><path class="cls-4" d="M596.61 434.92s-16.7 18.89 20.62 23.81 25.51-15.79 25.51-15.79"/><path class="cls-1" d="M651.46 375.49h7.81v7.81h-7.81zM659.27 384.16h6.34v6.34h-6.34zM709.8 354.73h6.34v6.34h-6.34z"/><path class="cls-6" d="M578.89 419.25h6.34v6.34h-6.34zM348.79 647.61h6.34v6.34h-6.34zM565.69 351.81H572v6.31h-6.31zM761.41 340.91h6.31v6.31h-6.31z"/><path class="cls-1" d="M572 361.45h6.31v6.31H572zM743.32 255.42h6.31v6.31h-6.31zM960.74 177.84h6.31v6.31h-6.31zM398.47 566.19l-2.61-64.61-11.54-1.64 1.67 9.77 2.15 56.48h-2.15v-4.69h-50.41v4.69h-18.77l4 13.75h78.49l3-13.75h-3.83z"/><path class="cls-16" d="M387.43 558.52L386 501.57a1.67 1.67 0 0 0-1.66-1.62h-48.25a1.67 1.67 0 0 0-1.66 1.62L333 558.52a1.48 1.48 0 0 0 1.48 1.48H386a1.48 1.48 0 0 0 1.43-1.48zM405.46 564.52l-5.21 14.35a1.63 1.63 0 0 1-1.53 1.07h-77a1.64 1.64 0 0 1-1.53-1.07L315 564.52"/><path class="cls-16" d="M333 555.52l1 9.25a.32.32 0 0 1-.31.35h-17.57a1.45 1.45 0 0 1-1.45-1.46l2.33-60.37a1.45 1.45 0 0 1 1.43-1.38h16M387.43 555.52l-1 9.25a.32.32 0 0 0 .31.35h17.58a1.45 1.45 0 0 0 1.45-1.46l-2.36-60.37a1.45 1.45 0 0 0-1.43-1.38H386M333.7 559.12l3.77 20.82M387.43 559.12l-3.77 20.82"/><path class="cls-6" d="M375.3 522.79h-9.91l-.14-9.91h-10.08l-.15 9.91h-9.9l-.46 10.98h10.21l-.16 11.13h10.99l-.15-11.13h10.2l-.45-10.98zM496.45 659.18h6.31v6.31h-6.31zM703.62 670.3h6.31v6.31h-6.31zM548.9 858.13h6.31v6.31h-6.31zM726.24 938.21h6.31v6.31h-6.31zM18.24 466.36h6.31v6.31h-6.31zM43.05 481.28h6.31v6.31h-6.31z"/><path class="cls-1" d="M459.91 793.67h12v12h-12zM482.39 666.33h12v12h-12zM628.98 573.94h12v12h-12zM804.06 714.97h12v12h-12zM765.42 683.72h12v12h-12zM620.32 714.97h12v12h-12zM31.05 461.48h12v12h-12zM418.13 755.56l2.31 15.08-15.08 2.31-10.35 11.67 26.94-4.13 9.86-1.51-1.52-9.86-4.13-26.94-8.03 13.38z"/><path class="cls-3" transform="rotate(-8.1 422.712 768.314)" d="M391.97 744.79h37.23v37.23h-37.23z"/><path class="cls-1" d="M454.97 749.9l2.31 15.08-15.08 2.32-10.35 11.67 26.94-4.13 9.86-1.51-1.52-9.86-4.13-26.94-8.03 13.37z"/><path class="cls-3" transform="rotate(-8.72 447.538 757.907)" d="M428.81 739.14h37.23v37.23h-37.23z"/><path class="cls-1" d="M449.28 713.12l2.31 15.08-15.08 2.31-10.35 11.68 26.94-4.13 9.86-1.52-1.52-9.85-4.13-26.94-8.03 13.37z"/><path class="cls-3" transform="rotate(-8.1 453.796 725.053)" d="M423.12 702.36h37.23v37.23h-37.23z"/><path class="cls-1" d="M491.85 744.25l2.31 15.08-15.08 2.31-10.35 11.67 26.94-4.13 9.86-1.51-1.52-9.86-4.13-26.94-8.03 13.38z"/><path class="cls-3" transform="rotate(-8.72 484.443 752.277)" d="M465.69 733.48h37.23v37.23h-37.23z"/><path class="cls-6" d="M211.57 481.84h6.31v6.31h-6.31z"/><path class="cls-1" d="M240.54 538.8h12v12h-12zM142.24 58.86h12v12h-12zM555.21 647.12h12v12h-12zM404.59 813.95h12v12h-12zM715.84 624.21h12v12h-12zM525.13 846.13h12v12h-12zM635.84 905.03h12v12h-12zM379.99 894.19h12v12h-12zM821.03 933.02h12v12h-12zM325.82 847.41h12v12h-12zM386.66 412.94h12v12h-12zM903.32 490.8h12v12h-12zM808.05 354.49h12v12h-12zM472 453.49h12v12h-12zM559.69 475.28h12v12h-12zM900.48 204.26h12v12h-12zM742.71 321.41h12v12h-12zM418.61 231h12v12h-12z"/><path class="cls-6" d="M518.5 315.38h6.31v6.31h-6.31z"/><path class="cls-1" d="M561.21 310.13h12v12h-12zM759.35 270.04h12v12h-12zM556.53 289.66h6.31v6.31h-6.31zM864.14 374.58h6.31v6.31h-6.31zM436.41 271.33c0 1-2.77 24.65-2.77 24.65l12.09-6.32 7.8 22.67-1.8-35.33-10.34 6z"/><path class="cls-6" d="M464.89 308.29l-6-55.29 12.08 16.11-2.91-38.11 13 56.33-15.01-13-1.16 33.96z"/><path class="cls-1" d="M424.15 448.73a12.44 12.44 0 0 1-8.22 8.74.48.48 0 0 0 0 .92 12.44 12.44 0 0 1 8.22 8.74.49.49 0 0 0 .93 0 12.44 12.44 0 0 1 8.22-8.74.48.48 0 0 0 0-.92 12.44 12.44 0 0 1-8.22-8.74.49.49 0 0 0-.93 0zM688 447.84a12.44 12.44 0 0 1-8.22 8.74.48.48 0 0 0 0 .92 12.46 12.46 0 0 1 8.22 8.74.48.48 0 0 0 .93 0 12.46 12.46 0 0 1 8.22-8.74.48.48 0 0 0 0-.92 12.44 12.44 0 0 1-8.22-8.74.49.49 0 0 0-.93 0zM878.37 496.29a6.21 6.21 0 0 1-4.11 4.36.24.24 0 0 0 0 .46 6.23 6.23 0 0 1 4.11 4.37.24.24 0 0 0 .46 0 6.24 6.24 0 0 1 4.12-4.37.24.24 0 0 0 0-.46 6.22 6.22 0 0 1-4.12-4.36.24.24 0 0 0-.46 0zM840.73 65a6.21 6.21 0 0 1-4.11 4.37.24.24 0 0 0 0 .46 6.21 6.21 0 0 1 4.11 4.37.25.25 0 0 0 .47 0 6.21 6.21 0 0 1 4.11-4.37.24.24 0 0 0 0-.46A6.21 6.21 0 0 1 841.2 65a.25.25 0 0 0-.47 0zM690.67 907.5a6.21 6.21 0 0 1-4.11 4.37.24.24 0 0 0 0 .46 6.21 6.21 0 0 1 4.11 4.37.24.24 0 0 0 .46 0 6.22 6.22 0 0 1 4.12-4.37.24.24 0 0 0 0-.46 6.22 6.22 0 0 1-4.12-4.37.24.24 0 0 0-.46 0zM932.6 619.12a6.22 6.22 0 0 1-4.12 4.37.24.24 0 0 0 0 .46 6.22 6.22 0 0 1 4.12 4.37.24.24 0 0 0 .46 0 6.23 6.23 0 0 1 4.11-4.37.24.24 0 0 0 0-.46 6.23 6.23 0 0 1-4.11-4.37.24.24 0 0 0-.46 0z"/><path class="cls-3" d="M583.31 139.7l-34.85-3.09a14.34 14.34 0 0 1-13-15.55l6.17-46.95a14.33 14.33 0 0 1 15.55-13L588 63.82a14.34 14.34 0 0 1 13 15.55l-2.18 47.31a14.34 14.34 0 0 1-15.51 13.02z"/><path class="cls-3" d="M578.34 129.31l-23.17-2c-5.24-.47-9.26-3.5-9-6.78l3.09-19.53c.29-3.28 4.78-5.56 10-5.09l20.52 1.81c5.25.47 9.27 3.5 9 6.78l-.41 19.7c-.29 3.29-4.78 5.57-10.03 5.11zM572.44 111.47l16.21 1.44M547.96 109.3l15.5 1.38"/><rect class="cls-3" x="562.79" y="106.94" width="10.92" height="9.62" rx="1.68" ry="1.68" transform="matrix(1 .09 -.09 1 12.07 -49.69)"/><path class="cls-3" d="M563.87 61.68l-.77-13.61a1.68 1.68 0 0 0-1.68-1.61h-8.89a1.68 1.68 0 0 0-1.67 1.54l-1.23 13.83M581.31 63.22L584.45 50a1.68 1.68 0 0 1 1.94-1.3l8.75 1.58a1.7 1.7 0 0 1 1.38 1.81l-1.23 13.82"/><path class="cls-19" d="M547 87.82l1-7.68a11 11 0 0 1 12-10l23.75 2.1a11 11 0 0 1 10 12l-.35 7.73"/><path class="cls-1" d="M180.55 433.59a23.85 23.85 0 0 1-15.76 16.75.92.92 0 0 0 0 1.76 23.87 23.87 0 0 1 15.76 16.75.92.92 0 0 0 1.77 0 23.87 23.87 0 0 1 15.76-16.75.92.92 0 0 0 0-1.76 23.85 23.85 0 0 1-15.76-16.75.92.92 0 0 0-1.77 0zM626.19 552.4l2.24-.62 1.32-6.92-5.25 1.46 1.69 6.08zM652.59 533.48l-9.73-8.83 6 31.5 12.4-3.46-2.35-30.97-6.32 11.76z"/><path class="cls-4" d="M652.49 534.2l-14-14.94-7.81 12.31-16.4-28.88a7.67 7.67 0 1 0-3.57 1c.28 10.12.93 33.19.93 33.19l-13.06-6.48-4.26 20.05L575 537l13.38 36 40.42-11.29 40.43-11.28-7.23-37.74z"/><path class="cls-19" d="M621.85 536.83l9.02 7.7-4.04 10.15-8.71-6.59 3.73-11.26z"/><path class="cls-1" d="M531.27 610.55A18.59 18.59 0 0 1 519 623.62a.72.72 0 0 0 0 1.38 18.59 18.59 0 0 1 12.3 13.07.73.73 0 0 0 1.39 0A18.59 18.59 0 0 1 545 625a.72.72 0 0 0 0-1.38 18.59 18.59 0 0 1-12.3-13.07.73.73 0 0 0-1.43 0zM483.53 844.2a12.45 12.45 0 0 1-8.23 8.8.48.48 0 0 0 0 .92 12.43 12.43 0 0 1 8.23 8.75.49.49 0 0 0 .93 0 12.45 12.45 0 0 1 8.23-8.75.48.48 0 0 0 0-.92 12.47 12.47 0 0 1-8.23-8.75.49.49 0 0 0-.93-.05z"/><path class="cls-6" d="M558.67 706.05L547 708.58v9.27h-.06v11.28a9.56 9.56 0 0 0-4.42 2.27c-2.94 2.54-4.19 6.1-2.79 7.94s4.9 1.27 7.84-1.28c2.17-1.88 3.41-4.31 3.35-6.19v-14.14l7.76-1.67z"/><path class="cls-1" d="M580.18 904.21a18.81 18.81 0 0 0-26.43-2.46l-7.4 6.13-6.14-7.39a18.81 18.81 0 0 0-26.43-2.49 18.82 18.82 0 0 0-2.46 26.43s23.07 27.62 28.88 34.28a2 2 0 0 0 2.8.29c6.93-5.47 34.71-28.36 34.71-28.36a18.83 18.83 0 0 0 2.47-26.43zm-55.63 15.11a8.5 8.5 0 1 1 9.25-7.67 8.49 8.49 0 0 1-9.25 7.67zm47.4 5.5l-24.34 18.7a2.53 2.53 0 0 1-1.76.51 2.5 2.5 0 0 1-1.29-4.47l24.34-18.7a2.5 2.5 0 1 1 3.05 4z"/><path class="cls-3" d="M546.35 907.88l7.4-6.13a18.81 18.81 0 0 1 26.43 2.46 18.83 18.83 0 0 1-2.46 26.43S549.94 953.53 543 959a2 2 0 0 1-2.81-.26c-5.81-6.66-28.88-34.28-28.88-34.28a18.82 18.82 0 0 1 2.47-26.46 18.81 18.81 0 0 1 26.43 2.46z"/></g></g></svg>