<?xml version="1.0" standalone="no"?>
<!DOCTYPE svg PUBLIC "-//W3C//DTD SVG 20010904//EN"
 "http://www.w3.org/TR/2001/REC-SVG-20010904/DTD/svg10.dtd">
<svg version="1.0" xmlns="http://www.w3.org/2000/svg"
 width="4096.000000pt" height="4096.000000pt" viewBox="0 0 4096.000000 4096.000000"
 preserveAspectRatio="xMidYMid meet">
<metadata>
Created by potrace 1.11, written by Peter Selinger 2001-2013
</metadata>
<g transform="translate(0.000000,4096.000000) scale(0.100000,-0.100000)"
fill="#0281f9" stroke="none">
<path d="M18449 40956 c-2 -2 -38 -7 -79 -11 -141 -13 -588 -71 -840 -110
-128 -20 -423 -69 -515 -87 -204 -38 -659 -129 -740 -149 -44 -10 -120 -28
-170 -39 -49 -11 -155 -36 -235 -56 -80 -19 -161 -39 -180 -44 -19 -4 -96 -24
-170 -44 -74 -21 -151 -41 -170 -46 -388 -93 -1343 -406 -1891 -621 -70 -27
-130 -49 -133 -49 -17 0 -1765 -754 -1941 -837 -523 -246 -1356 -691 -1725
-921 -36 -22 -107 -66 -159 -97 -52 -32 -131 -81 -175 -109 -45 -29 -106 -67
-136 -86 -168 -105 -565 -371 -809 -545 -137 -97 -664 -490 -729 -544 -26 -21
-114 -91 -196 -157 -214 -171 -477 -390 -586 -488 -25 -23 -64 -56 -85 -75
-22 -19 -63 -55 -90 -80 -28 -25 -93 -84 -145 -131 -293 -263 -664 -625 -990
-966 -138 -144 -159 -167 -340 -364 -423 -461 -929 -1082 -1336 -1640 -469
-641 -995 -1470 -1344 -2115 -193 -358 -228 -423 -384 -740 -136 -275 -326
-676 -326 -689 0 -2 -15 -37 -34 -78 -71 -152 -219 -508 -400 -960 -236 -593
-338 -866 -491 -1323 -43 -126 -81 -232 -86 -235 -4 -3 -8 -14 -7 -25 1 -11
-17 -81 -40 -155 -334 -1093 -553 -2089 -701 -3195 -78 -583 -73 -352 -68
-2660 3 -1362 8 -2085 15 -2135 5 -41 13 -102 17 -135 18 -168 90 -663 131
-910 104 -618 249 -1289 399 -1840 9 -33 25 -91 35 -130 10 -38 28 -104 40
-145 12 -41 25 -88 29 -105 4 -16 13 -46 19 -65 7 -19 35 -111 62 -205 84
-281 292 -894 400 -1175 28 -74 72 -189 97 -255 68 -178 747 -1759 853 -1985
111 -235 370 -747 505 -995 170 -314 458 -809 579 -995 13 -19 39 -60 58 -90
427 -679 910 -1352 1407 -1960 74 -91 138 -167 141 -170 3 -3 28 -32 55 -65
479 -577 1119 -1244 1740 -1815 1099 -1011 2344 -1915 3655 -2653 112 -62 147
-82 315 -173 416 -224 941 -481 1385 -677 504 -222 1387 -574 1900 -757 1388
-494 2848 -832 4345 -1005 121 -14 236 -28 255 -32 19 -4 874 -8 1900 -11
1776 -3 1991 -1 2135 24 11 2 69 8 129 14 125 13 118 12 376 45 493 65 1057
162 1540 265 311 67 684 156 940 226 52 14 127 34 165 44 120 31 186 49 218
60 18 5 131 39 252 76 216 64 719 230 965 318 119 43 233 85 472 175 190 72
1744 737 1973 844 405 190 1054 527 1415 735 91 52 174 100 185 106 74 41 407
245 530 323 44 29 114 73 155 99 466 297 1138 774 1525 1084 44 35 123 98 175
139 130 104 487 403 570 477 19 17 100 89 180 160 825 733 1623 1575 2301
2429 120 151 182 231 349 450 534 702 1162 1683 1583 2475 31 58 77 143 102
190 118 218 406 814 573 1185 122 272 536 1294 643 1585 23 63 66 183 96 265
484 1337 833 2807 1013 4270 62 507 58 326 59 2345 1 1545 -1 1868 -13 1985
-8 77 -20 187 -26 245 -31 305 -133 998 -196 1330 -75 395 -140 707 -216 1025
-37 158 -103 414 -152 595 -8 30 -24 91 -36 135 -97 364 -339 1111 -495 1525
-128 342 -190 494 -378 936 -558 1304 -567 1326 -790 1769 -66 132 -129 258
-140 280 -90 182 -382 708 -541 973 -50 84 -96 160 -101 170 -135 231 -556
878 -708 1086 -34 47 -78 108 -97 136 -136 196 -563 761 -700 925 -19 23 -71
86 -115 140 -103 126 -503 595 -525 615 -9 8 -56 60 -105 115 -306 343 -853
894 -1245 1256 -941 866 -1987 1654 -3085 2324 -215 131 -601 356 -735 427
-41 22 -99 54 -129 71 -85 48 -299 159 -526 273 -115 59 -214 113 -218 120 -4
8 -17 14 -28 14 -11 0 -131 52 -266 115 -134 63 -246 115 -248 115 -2 0 -43
18 -91 41 -159 73 -483 208 -959 399 -658 263 -890 349 -1395 517 -856 284
-1692 500 -2545 657 -482 89 -581 105 -1026 165 -574 78 -331 71 -2623 71
-1129 0 -2055 -2 -2057 -4z m2761 -1745 c338 -15 662 -35 890 -56 229 -21 635
-63 670 -70 14 -2 50 -7 80 -10 30 -3 87 -10 125 -15 39 -6 120 -17 180 -25
1228 -171 2497 -477 3670 -883 534 -186 799 -292 1238 -497 l150 -70 597
-1395 c329 -767 1817 -4241 3307 -7720 1490 -3479 3287 -7674 3994 -9322 706
-1649 1287 -2994 1290 -2990 20 20 152 404 218 634 62 214 140 566 170 768 5
36 12 83 16 105 14 98 35 291 40 386 4 57 8 118 11 134 5 39 5 609 0 655 -3
19 -7 78 -11 130 -25 382 -102 799 -240 1295 -31 113 -136 418 -187 545 -29
72 -2669 6239 -5297 12375 -676 1578 -1228 2871 -1226 2873 4 4 273 -180 418
-285 48 -34 129 -93 180 -130 547 -396 1219 -952 1757 -1452 342 -318 765
-742 1039 -1041 274 -299 287 -313 371 -410 36 -41 67 -77 70 -80 3 -3 27 -32
55 -65 27 -33 52 -62 55 -65 17 -14 240 -285 396 -481 253 -317 588 -766 794
-1064 76 -111 376 -562 416 -627 16 -26 59 -94 95 -150 433 -675 1047 -1840
1291 -2448 240 -597 516 -1427 683 -2050 8 -30 23 -86 34 -125 17 -61 114
-453 157 -630 103 -435 245 -1211 319 -1745 77 -563 141 -1264 160 -1750 3
-80 8 -188 11 -240 9 -168 11 -957 4 -1213 -8 -261 -28 -681 -35 -757 -2 -25
-7 -83 -10 -130 -117 -1666 -492 -3481 -1037 -5025 -27 -77 -65 -183 -83 -235
-172 -492 -532 -1283 -898 -1975 -865 -1638 -2005 -3201 -3287 -4510 -407
-416 -844 -828 -1195 -1130 -77 -65 -142 -122 -145 -125 -3 -3 -32 -28 -65
-55 -33 -28 -62 -52 -65 -55 -72 -73 -749 -601 -1020 -796 -69 -50 -168 -122
-220 -159 -140 -102 -643 -443 -722 -490 -10 -5 -67 -41 -128 -80 -293 -186
-705 -430 -1035 -613 -297 -165 -932 -486 -1220 -617 -403 -184 -1145 -453
-1765 -641 -91 -28 -446 -132 -470 -138 -14 -4 -50 -14 -80 -22 -252 -69 -557
-145 -885 -220 -330 -76 -980 -199 -1310 -248 -55 -8 -145 -22 -200 -30 -164
-26 -597 -80 -735 -92 -30 -2 -93 -9 -140 -14 -47 -5 -119 -12 -160 -16 -41
-3 -88 -8 -105 -10 -32 -3 -577 -39 -735 -48 -280 -16 -913 -23 -1355 -16
-574 9 -1359 65 -1955 140 -41 5 -97 12 -125 15 -444 52 -1344 212 -1830 325
-49 11 -121 28 -160 37 -985 229 -2218 626 -2865 921 -36 16 -168 76 -294 133
l-229 103 32 14 c19 7 31 18 28 25 -3 7 -949 2215 -2102 4907 -1153 2692
-2821 6585 -3706 8650 -885 2065 -2177 5083 -2872 6705 l-1264 2950 59 170
c33 94 73 206 88 250 327 927 1015 2286 1701 3360 79 124 435 657 478 716 18
24 94 130 169 234 394 547 815 1070 1297 1609 87 99 107 120 271 296 78 84
245 257 419 433 306 311 785 758 1085 1012 58 49 107 92 110 95 3 3 32 28 65
55 33 28 69 58 80 68 45 42 561 452 715 569 197 149 493 364 690 501 100 69
553 370 622 413 27 16 90 56 141 89 394 255 1127 664 1692 944 563 280 759
362 1490 624 322 116 949 311 1325 412 30 8 87 23 125 34 259 72 931 228 1215
281 362 69 746 135 915 160 170 24 218 31 355 49 191 26 200 27 375 45 290 31
331 35 390 41 172 15 289 25 370 30 50 3 149 10 220 15 514 36 1425 45 1995
21z m-17757 -18876 c789 -1842 2148 -5015 3020 -7050 1867 -4359 3554 -8296
3574 -8343 17 -40 29 -46 -142 72 -342 236 -679 485 -1015 749 -179 141 -519
421 -640 526 -164 144 -438 388 -495 441 -33 31 -100 94 -150 140 -423 395
-1063 1063 -1440 1505 -33 39 -62 72 -65 75 -3 3 -59 70 -126 150 -507 611
-912 1158 -1347 1822 -260 395 -388 603 -581 943 -60 105 -125 219 -146 255
-108 188 -247 453 -431 820 -225 449 -316 657 -492 1120 -109 288 -299 845
-375 1105 -108 365 -144 485 -152 515 -82 290 -219 854 -291 1190 -73 345
-184 971 -213 1200 -4 25 -11 72 -16 105 -24 151 -75 559 -90 720 -5 61 -15
160 -20 220 -6 61 -12 128 -15 150 -3 22 -12 144 -20 270 -8 127 -17 262 -20
300 -2 39 -7 122 -10 185 -2 63 -8 183 -11 265 -19 417 0 1591 31 1935 3 30
12 145 20 255 13 169 40 453 61 650 37 344 144 1079 155 1067 4 -4 653 -1514
1442 -3357z"/>
<path d="M25440 37070 c-459 -197 -841 -362 -849 -367 -13 -9 132 -348 6946
-16253 866 -2021 1939 -4528 2385 -5570 446 -1042 814 -1899 819 -1904 9 -11
64 20 234 132 113 74 371 256 385 272 3 3 52 43 110 89 227 183 527 468 686
651 21 25 41 47 44 50 34 34 60 -30 -850 2097 -485 1132 -2240 5228 -3900
9103 -1660 3875 -3500 8171 -4090 9547 -590 1377 -1075 2505 -1078 2507 -4 2
-383 -158 -842 -354z"/>
<path d="M22032 35611 c-458 -197 -837 -362 -842 -367 -6 -6 202 -504 566
-1354 317 -740 1847 -4313 3401 -7940 1554 -3627 3505 -8181 4335 -10120 831
-1939 1538 -3589 1571 -3667 l61 -141 51 -5 c62 -5 597 0 645 7 19 2 77 7 128
11 51 3 99 8 105 10 7 2 41 6 77 10 107 10 217 26 340 50 41 8 86 17 100 19
167 30 471 108 477 122 2 6 -90 231 -205 500 -3675 8579 -6185 14437 -7449
17389 -872 2035 -1791 4179 -2042 4765 -301 704 -461 1065 -471 1066 -8 1
-390 -159 -848 -355z"/>
<path d="M18640 34156 c-714 -306 -845 -365 -844 -382 0 -10 1165 -2737 2588
-6059 1424 -3322 3159 -7372 3856 -9000 764 -1784 1307 -3036 1364 -3150 95
-191 244 -459 312 -564 111 -170 219 -328 285 -415 41 -54 83 -110 94 -125
186 -248 519 -598 830 -870 221 -194 606 -468 905 -643 172 -101 631 -338 655
-338 3 0 24 -9 48 -19 137 -63 177 -79 177 -70 0 11 -113 274 -4300 10049
-1611 3759 -3420 7983 -4020 9385 -601 1403 -1095 2553 -1098 2557 -4 4 -387
-156 -852 -356z"/>
<path d="M15233 32697 c-464 -199 -843 -366 -843 -371 0 -9 68 -168 2535
-5926 870 -2032 2855 -6665 4410 -10295 1555 -3630 2919 -6814 3031 -7075 120
-279 209 -475 216 -474 17 1 1681 714 1692 725 5 5 -173 433 -427 1026 -240
560 -1151 2687 -2025 4728 -1551 3620 -6784 15835 -7407 17290 -180 420 -319
731 -326 732 -8 1 -393 -161 -856 -360z"/>
<path d="M11840 31244 c-556 -239 -844 -368 -842 -376 5 -18 1348 -3155 8187
-19118 887 -2071 1698 -3962 1801 -4203 103 -242 192 -441 198 -443 6 -2 391
159 856 359 614 263 844 367 842 377 -4 16 -257 607 -8894 20769 -706 1647
-1287 2995 -1293 2997 -5 1 -390 -162 -855 -362z"/>
<path d="M5060 28340 c-459 -197 -841 -362 -848 -367 -11 -6 14 -73 111 -298
69 -160 1505 -3512 3192 -7450 1687 -3938 3780 -8823 4650 -10855 871 -2032
1726 -4029 1901 -4438 175 -408 322 -742 327 -742 4 0 389 163 854 362 761
327 844 364 840 383 -2 11 -599 1408 -1327 3105 -1305 3045 -5373 12542 -7668
17900 -649 1515 -1184 2755 -1189 2756 -4 2 -384 -159 -843 -356z"/>
<path d="M11353 22997 c-464 -199 -843 -366 -843 -370 0 -7 2520 -5894 4168
-9738 l196 -456 30 13 c341 144 1670 715 1674 719 8 8 -4361 10195 -4372
10194 -6 -1 -390 -164 -853 -362z"/>
</g>
</svg>
